<svg xmlns="http://www.w3.org/2000/svg" xmlns:xlink="http://www.w3.org/1999/xlink" viewBox="0 0 1440 1440"><defs><linearGradient id="linear-gradient" x1="1082.85" y1="557.37" x2="1111.96" y2="557.37" gradientUnits="userSpaceOnUse"><stop offset="0" stop-color="#10233d"/><stop offset="1" stop-color="#002d61"/></linearGradient><linearGradient id="linear-gradient-2" x1="1102.16" y1="572.03" x2="1132.4" y2="572.03" xlink:href="#linear-gradient"/><linearGradient id="linear-gradient-3" x1="1126.48" y1="619.94" x2="1179.33" y2="619.94" xlink:href="#linear-gradient"/><linearGradient id="linear-gradient-4" x1="339.19" y1="742.72" x2="368.3" y2="742.72" gradientTransform="matrix(-1, 0, 0, 1, 652.98, 0)" xlink:href="#linear-gradient"/><linearGradient id="linear-gradient-5" x1="358.5" y1="757.38" x2="388.74" y2="757.38" gradientTransform="matrix(-1, 0, 0, 1, 652.98, 0)" xlink:href="#linear-gradient"/><linearGradient id="linear-gradient-6" x1="382.82" y1="805.28" x2="435.67" y2="805.28" gradientTransform="matrix(-1, 0, 0, 1, 652.98, 0)" xlink:href="#linear-gradient"/><linearGradient id="linear-gradient-7" x1="575.42" y1="219.11" x2="575.42" y2="907.89" xlink:href="#linear-gradient"/><linearGradient id="linear-gradient-8" x1="528" y1="438.46" x2="625.61" y2="781.64" xlink:href="#linear-gradient"/><linearGradient id="linear-gradient-9" x1="1099.34" y1="578.92" x2="950.85" y2="499.37" gradientTransform="matrix(-1, 0, 0, 1, 1440, 0)" xlink:href="#linear-gradient"/><linearGradient id="linear-gradient-10" x1="611.7" y1="502.36" x2="841.68" y2="502.36" xlink:href="#linear-gradient"/><linearGradient id="linear-gradient-11" x1="338.65" y1="668.18" x2="571.85" y2="668.18" xlink:href="#linear-gradient"/><linearGradient id="linear-gradient-12" x1="873.06" y1="705.98" x2="1091.86" y2="705.98" xlink:href="#linear-gradient"/><linearGradient id="linear-gradient-13" x1="786.62" y1="905.86" x2="797.79" y2="905.86" xlink:href="#linear-gradient"/><linearGradient id="linear-gradient-14" x1="786.62" y1="900.28" x2="797.79" y2="900.28" xlink:href="#linear-gradient"/><linearGradient id="linear-gradient-15" x1="720.17" y1="943.47" x2="731.34" y2="943.47" xlink:href="#linear-gradient"/><linearGradient id="linear-gradient-16" x1="720.17" y1="937.88" x2="731.34" y2="937.88" xlink:href="#linear-gradient"/><linearGradient id="linear-gradient-17" x1="770.97" y1="1035.37" x2="775" y2="1035.37" xlink:href="#linear-gradient"/><linearGradient id="linear-gradient-18" x1="694.36" y1="945.93" x2="694.36" y2="1078.92" xlink:href="#linear-gradient"/><linearGradient id="linear-gradient-19" x1="770.6" y1="945.93" x2="770.6" y2="1078.92" xlink:href="#linear-gradient"/><linearGradient id="linear-gradient-20" x1="723.14" y1="1037.45" x2="744.09" y2="1037.45" xlink:href="#linear-gradient"/><linearGradient id="linear-gradient-21" x1="877.35" y1="866.11" x2="898.3" y2="866.11" xlink:href="#linear-gradient"/><linearGradient id="linear-gradient-22" x1="642.27" y1="1002.17" x2="663.22" y2="1002.17" xlink:href="#linear-gradient"/><linearGradient id="linear-gradient-23" x1="641.02" y1="861.4" x2="641.02" y2="907.63" xlink:href="#linear-gradient"/><linearGradient id="linear-gradient-24" x1="859.55" y1="942.37" x2="859.55" y2="1045.67" xlink:href="#linear-gradient"/><linearGradient id="linear-gradient-25" x1="822.11" y1="942.37" x2="822.11" y2="1045.67" xlink:href="#linear-gradient"/><linearGradient id="linear-gradient-26" x1="842.27" y1="660.58" x2="842.27" y2="763.83" xlink:href="#linear-gradient"/><linearGradient id="linear-gradient-27" x1="866.36" y1="660.58" x2="866.36" y2="763.83" xlink:href="#linear-gradient"/><linearGradient id="linear-gradient-28" x1="818.17" y1="660.58" x2="818.17" y2="763.83" xlink:href="#linear-gradient"/><linearGradient id="linear-gradient-29" x1="847.51" y1="660.58" x2="847.51" y2="763.83" xlink:href="#linear-gradient"/><linearGradient id="linear-gradient-30" x1="851" y1="660.58" x2="851" y2="763.83" xlink:href="#linear-gradient"/><linearGradient id="linear-gradient-31" x1="866.9" y1="660.58" x2="866.9" y2="763.83" xlink:href="#linear-gradient"/><linearGradient id="linear-gradient-32" x1="857.11" y1="660.58" x2="857.11" y2="763.83" xlink:href="#linear-gradient"/><linearGradient id="linear-gradient-33" x1="844.8" y1="660.58" x2="844.8" y2="763.83" xlink:href="#linear-gradient"/><linearGradient id="linear-gradient-34" x1="835.06" y1="660.58" x2="835.06" y2="763.83" xlink:href="#linear-gradient"/><linearGradient id="linear-gradient-35" x1="825.6" y1="660.58" x2="825.6" y2="763.83" xlink:href="#linear-gradient"/><linearGradient id="linear-gradient-36" x1="840.3" y1="660.58" x2="840.3" y2="763.83" xlink:href="#linear-gradient"/><linearGradient id="linear-gradient-37" x1="372.35" y1="389.4" x2="582.18" y2="389.4" gradientTransform="translate(516.12)" xlink:href="#linear-gradient"/><linearGradient id="linear-gradient-38" x1="-554.93" y1="460.58" x2="-345.1" y2="460.58" gradientTransform="matrix(-1, 0, 0, 1, -160.77, 0)" xlink:href="#linear-gradient"/><linearGradient id="linear-gradient-39" x1="969.9" y1="950.23" x2="1212.43" y2="950.23" xlink:href="#linear-gradient"/><clipPath id="clip-path"><path d="M1092.65,554.15l-9.8,5.7a11.64,11.64,0,0,1,1.37-.68c4.59-1.88,11.25-.84,17.94,3l9.8-5.7c-6.68-3.86-13.35-4.9-17.93-3A11,11,0,0,0,1092.65,554.15Z" fill="url(#linear-gradient)"/></clipPath><clipPath id="clip-path-2"><path d="M1122.59,587.57l9.81-5.69c-4.57-12.29-12.52-20.82-20.44-25.39l-9.8,5.7C1110.07,566.76,1118,575.28,1122.59,587.57Z" fill="url(#linear-gradient-2)"/></clipPath><clipPath id="clip-path-3"><path d="M1150.46,663.21l9.8-5.7c24.61-14.3,22.26-41.3,10.54-59.71a55.38,55.38,0,0,0-17.89-17.66c-6-3.47-12.05-4.69-16.63-2l-9.8,5.7c4.58-2.67,10.62-1.45,16.63,2,6.69,3.86,13.33,10.5,17.89,17.67C1172.72,621.91,1175.07,648.9,1150.46,663.21Z" fill="url(#linear-gradient-3)"/></clipPath><clipPath id="clip-path-4"><path d="M304,739.5l9.81,5.7a11,11,0,0,0-1.38-.68c-4.59-1.89-11.25-.84-17.93,3l-9.8-5.7c6.68-3.86,13.34-4.9,17.93-3A11.64,11.64,0,0,1,304,739.5Z" fill="url(#linear-gradient-4)"/></clipPath><clipPath id="clip-path-5"><path d="M274,772.92l-9.8-5.69c4.57-12.3,12.52-20.82,20.44-25.39l9.8,5.7C286.56,752.11,278.61,760.63,274,772.92Z" fill="url(#linear-gradient-5)"/></clipPath><clipPath id="clip-path-6"><path d="M246.18,848.55l-9.8-5.69c-24.62-14.31-22.27-41.3-10.55-59.71,4.56-7.17,11.21-13.81,17.89-17.67,6-3.47,12.05-4.69,16.64-2l9.8,5.69c-4.59-2.66-10.63-1.44-16.64,2-6.68,3.86-13.33,10.5-17.89,17.67C223.92,807.25,221.57,834.25,246.18,848.55Z" fill="url(#linear-gradient-6)"/></clipPath></defs><g style="isolation:isolate"><g id="Layer_1" data-name="Layer 1"><ellipse cx="700.84" cy="977.83" rx="541.89" ry="312.86" fill="#edf7fc"/><path d="M724.57,156.89c-.34-.24-23.74-11.68-24.13-11.83l-.55-.2h0l-.55-.21h0l-.55-.2h0l-.55-.21h0l-.55-.2h0l-.55-.21h0l-.55-.2h0l-.55-.21h0l-.55-.2h0c-.18-.08-.37-.14-.55-.21h0l-.55-.2h0c-.18-.08-.37-.14-.55-.21h0l-.55-.2,0,0-.55-.2h0l-.55-.2,0,0-.55-.2h0l-.55-.2,0,0-.55-.2h0l-.55-.2,0,0-.55-.2h0l-.55-.2,0,0c-9.65-3.69-20-5.34-32.51,1.9L420.32,278.36c-26.55,15.33-48.08,56.46-48.08,91.87v627c0,18.81,6.08,32.22,15.76,38.36.57.36,40.39,18.77,41,19,8.58,2.86-5.41-7.74,6.2-14.44L670.66,904.18c26.55-15.33,48.08-56.47,48.08-91.87v-627C718.74,167.34,733.54,163.36,724.57,156.89Z" fill="#55c3fe"/><path d="M457.71,1050.72,693.13,914.8c26.56-15.33,48.08-56.46,48.08-91.87V196c0-35.41-21.52-51.69-48.08-36.36L457.71,295.55c-26.56,15.33-48.08,56.46-48.08,91.87v627C409.63,1049.78,431.15,1066.06,457.71,1050.72Z" fill="url(#linear-gradient-7)"/><path d="M687.35,186.61c18.37-10.61,33.26-2.12,33.26,19V837.14c0,21.07-14.89,46.75-33.26,57.35L463.49,1023.74c-18.37,10.61-33.26,2.12-33.26-19V373.21c0-21.07,14.89-46.75,33.26-57.35Z" opacity="0.4" fill="url(#linear-gradient-8)" style="mix-blend-mode:multiply"/><path d="M391.56,593.47h0c6.76,3.9,12.23-.24,12.23-9.25v-51c0-9-5.47-19.47-12.23-23.37h0c-6.75-3.9-12.23.24-12.23,9.25v51C379.33,579.1,384.81,589.57,391.56,593.47Z" fill="url(#linear-gradient-9)"/><path d="M829.88,649.07,623.5,768.22C617,772,611.7,768,611.7,759.3V378.19c0-8.69,5.28-18.78,11.8-22.55L829.88,236.49c6.51-3.76,11.8.23,11.8,8.92V626.52C841.68,635.21,836.39,645.31,829.88,649.07Z" fill="url(#linear-gradient-10)"/><path d="M559.88,817,350.61,937.77c-6.6,3.81-12-.24-12-9V542.28c0-8.82,5.36-19,12-22.87L559.88,398.59c6.61-3.81,12,.24,12,9.05V794.08C571.85,802.89,566.49,813.13,559.88,817Z" fill="url(#linear-gradient-11)"/><path d="M849.61,663.32,643.23,782.47c-6.52,3.77-11.8-.23-11.8-8.92V392.44c0-8.69,5.28-18.78,11.8-22.55L849.61,250.74c6.51-3.76,11.8.23,11.8,8.93v381.1C861.41,649.46,856.12,659.56,849.61,663.32Z" fill="#fff"/><path d="M727.93,455.66l-58.52,33.79c-5.11,2.95-9.25-.18-9.25-7V418.18c0-6.81,4.14-14.72,9.25-17.67l58.52-33.79c5.11-3,9.25.18,9.25,7V438C737.18,444.8,733,452.71,727.93,455.66Z" fill="#edf7fc"/><path d="M812.84,355.76l-58.11,33.55c-1.8,1-3.25-.06-3.25-2.45v-5.81a7.76,7.76,0,0,1,3.25-6.2l58.11-33.55c1.79-1,3.25.06,3.25,2.45v5.81A7.79,7.79,0,0,1,812.84,355.76Z" fill="#edf7fc"/><path d="M831.89,372l-77.16,44.55c-1.8,1-3.25-.06-3.25-2.45v-5.8a7.78,7.78,0,0,1,3.25-6.21l77.16-44.54c1.79-1,3.24.06,3.24,2.45v5.8A7.77,7.77,0,0,1,831.89,372Z" fill="#edf7fc"/><path d="M727.93,561.17,669.41,595c-5.11,2.94-9.25-.19-9.25-7V523.68c0-6.81,4.14-14.72,9.25-17.67l58.52-33.79c5.11-3,9.25.18,9.25,7V543.5C737.18,550.31,733,558.22,727.93,561.17Z" fill="#edf7fc"/><path d="M812.84,461.26l-58.11,33.55c-1.8,1-3.25-.06-3.25-2.45v-5.81a7.76,7.76,0,0,1,3.25-6.2l58.11-33.55c1.79-1,3.25.06,3.25,2.45v5.81A7.79,7.79,0,0,1,812.84,461.26Z" fill="#edf7fc"/><path d="M831.89,477.55l-77.16,44.54c-1.8,1-3.25-.06-3.25-2.45v-5.8a7.75,7.75,0,0,1,3.25-6.2l77.16-44.55c1.79-1,3.24.06,3.24,2.45v5.8A7.8,7.8,0,0,1,831.89,477.55Z" fill="#edf7fc"/><path d="M727.93,666.67l-58.52,33.79c-5.11,2.95-9.25-.18-9.25-7V629.18c0-6.81,4.14-14.72,9.25-17.67l58.52-33.79c5.11-3,9.25.18,9.25,7V649C737.18,655.81,733,663.72,727.93,666.67Z" fill="#edf7fc"/><path d="M812.84,566.76l-58.11,33.55c-1.8,1-3.25-.06-3.25-2.45v-5.8a7.75,7.75,0,0,1,3.25-6.2l58.11-33.56c1.79-1,3.25.07,3.25,2.46v5.8A7.79,7.79,0,0,1,812.84,566.76Z" fill="#edf7fc"/><path d="M831.89,583.05,754.73,627.6c-1.8,1-3.25-.07-3.25-2.46v-5.8a7.75,7.75,0,0,1,3.25-6.2l77.16-44.55c1.79-1,3.24.06,3.24,2.45v5.81A7.78,7.78,0,0,1,831.89,583.05Z" fill="#edf7fc"/><path d="M692.61,673c-.76.12-1.53.28-2.29.37-5.79.67-10.07-1.42-12.81-6.31l-.19-.4L720,642a11.89,11.89,0,0,1-.55,1.69A55.25,55.25,0,0,1,704.58,666a.33.33,0,0,0-.05.12Z" fill="#002d61"/><path d="M698.67,650.72q-10.95,6.31-21.91,12.66c-.42.24-.6.24-.68-.2a23.2,23.2,0,0,1-.45-4.2,3.35,3.35,0,0,1,1.73-3.08L720,631.3c1.16-.66,1.76-.29,1.75,1.06a34,34,0,0,1-.47,4.79,1.09,1.09,0,0,1-.6.89c-4.21,2.41-8.42,4.85-12.63,7.28Z" fill="#002d61"/><path d="M713.06,631.73c.44-2.42.12-4.22-1-5.36-2-2-5.77-.59-8.51,3.25-.32.45-.43.54-.59.16a7,7,0,0,0-1.9-2.72c-.19-.17-.18-.29.07-.62a20.79,20.79,0,0,1,4.62-4.61,1.52,1.52,0,0,0,.69-1.06q1.69-8.41,3.42-16.83a3.44,3.44,0,0,1,1.9-2.74c.92-.28,1.38.44,1.11,1.76-.88,4.36-1.78,8.72-2.67,13.08-.23,1.15-.45,2.29-.7,3.43-.08.37,0,.44.24.32s.3-.06.45-.11c.36-.12.73.07,1-.28A6.13,6.13,0,0,0,712,618q3.4-7,6.82-14a3.37,3.37,0,0,1,1.67-1.86c1.17-.44,1.64.82.89,2.39-1.45,3-2.93,6-4.39,9-.93,1.9-1.84,3.81-2.79,5.71-.24.48-.21.61.06.74,2.71,1.32,3.92,4.17,3.56,8.62,0,.23,0,.41-.28.58C716,630,714.56,630.87,713.06,631.73Z" fill="#002d61"/><path d="M696.12,641.51c.55-3.52-.42-5.81-2.59-6.22s-4.76,1.18-6.81,4a12.11,12.11,0,0,0-2.57,9.11.92.92,0,0,1-.43.31c-1.27.74-2.54,1.46-3.8,2.21-.33.2-.47.21-.5-.19-.32-4.16.91-8.54,3.78-13,3.18-4.91,6.84-7.76,10.72-8.32s6.15,1.52,6.89,5.82a11.86,11.86,0,0,1,0,3.22c0,.28-.06.41-.32.56C699.07,639.8,697.62,640.65,696.12,641.51Z" fill="#002d61"/><path d="M690.15,645c-.75.44-1.5.84-2.26,1.32-.36.22-.5.14-.62-.15-.63-1.53.26-4.2,1.93-5.79s3.51-1.47,3.93.29a4.58,4.58,0,0,1-.15,2.29,1,1,0,0,1-.52.72C691.69,644.05,690.92,644.52,690.15,645Z" fill="#002d61"/><path d="M707.09,635.18c-.75.43-1.5.85-2.25,1.31-.33.2-.49.17-.61-.1-.66-1.49.2-4.16,1.88-5.78s3.52-1.55,4,.19a4.55,4.55,0,0,1-.14,2.34,1,1,0,0,1-.53.72C708.63,634.27,707.86,634.74,707.09,635.18Z" fill="#002d61"/><path d="M675.89,450.28,721,424.22c.31-.19.39-.14.35.24a34,34,0,0,1-4.55,13.87,41.31,41.31,0,0,1-2.61,4l3-1.74c.59-.34,1.09-.22,1.27.28a2.25,2.25,0,0,1-.34,1.84,5.37,5.37,0,0,1-.63.78l-37.82,21.84s0,0,0,0c-.74,0-1-.47-.88-1.28a3,3,0,0,1,1.53-2.11l2.8-1.61-.32-.09q-5.26-1.29-6.61-7.81a6.5,6.5,0,0,0-.3-1.59Z" fill="#002d61"/><path d="M675.89,443.4a3.58,3.58,0,0,1,1.73-2.15q21.09-12.13,42.16-24.33c1.2-.69,1.67-.42,1.67,1,0,.89,0,1.79,0,2.67a.44.44,0,0,1-.29.51,2.48,2.48,0,0,0-.31.18l-45,26Z" fill="#002d61"/><path d="M718.84,414.36l-40.39,23.32a14.64,14.64,0,0,1,1.28-2.79,13.52,13.52,0,0,1,1.41-2.05,1.52,1.52,0,0,0,.35-.75,15.7,15.7,0,0,1,5.44-9.17,2.17,2.17,0,0,0,.64-.83,14.42,14.42,0,0,1,5.46-6.35,1.24,1.24,0,0,0,.49-.54c2.85-5.22,7.43-7.86,10.3-5.94.15.1.29.07.5,0,2.27-1.26,4.11-1.23,5.48.09a.49.49,0,0,0,.56.07q4.35-1.41,5.49,2.88a.38.38,0,0,0,.39.34,3.31,3.31,0,0,1,2.5,1.47,2.25,2.25,0,0,1,.12.21S718.85,414.32,718.84,414.36Zm-20.16,1.46a3,3,0,0,0-1.35,2.29.83.83,0,0,0,1.35.79,3,3,0,0,0,1.32-2.31C700,415.75,699.41,415.41,698.68,415.82Zm-4.45,9.76a3,3,0,0,0,1.32-2.31c0-.86-.61-1.19-1.36-.74a2.93,2.93,0,0,0-1.31,2.3C692.89,425.66,693.51,426,694.23,425.58Zm10.22-7.44c0-.84-.58-1.19-1.31-.78a2.94,2.94,0,0,0-1.36,2.28c0,.86.61,1.23,1.34.81A3,3,0,0,0,704.45,418.14Z" fill="#002d61"/><path d="M716.63,391.42c1.15-.66,1.75.23,1.24,1.64-.83,2.27-1.68,4.54-2.51,6.81q-1,2.64-1.94,5.26c-.12.33-.22.45-.47.46a7.76,7.76,0,0,0-1.21.19.56.56,0,0,1-.34,0c-.5-.3-.51-.29-.16-1.21q2.12-5.76,4.24-11.5A3.11,3.11,0,0,1,716.63,391.42Z" fill="#002d61"/><path d="M710.48,396.6c0,.13-.06.37-.12.61-.54,2.39-1.1,4.78-1.64,7.17-.08.33-.14.5-.44.5a5.63,5.63,0,0,0-1.92.35c-.21.07-.29,0-.21-.28.58-2.47,1.14-4.93,1.72-7.4a2.86,2.86,0,0,1,1.49-1.92C710,395.39,710.46,395.76,710.48,396.6Z" fill="#002d61"/><path d="M721.72,526a4,4,0,0,0-.35,1.23c-.33,1.39-.57,2.76-1,4.17-1.43,4.91-4.82,9.55-8.63,11.76q-13,7.54-26,15c-4.17,2.39-7.76,1.31-9-2.64-.3-1-.6-1.94-.89-2.91a2.71,2.71,0,0,1,1.43-3.06q21.43-12.37,42.88-24.77c.78-.45,1.24-.31,1.57.25Z" fill="#002d61"/><path d="M721.72,511.41c-.17.22-.12.41-.16.6a14.53,14.53,0,0,1-1.76,4.79,1,1,0,0,0-.18.89,7.34,7.34,0,0,1,0,4,.73.73,0,0,1-.4.57l-8,4.64c-.22.13-.3.13-.3-.16,0-1.66,0-3.32,0-5a1.06,1.06,0,0,1,.3-.69q1.68-2.25,3.35-4.52a2.52,2.52,0,0,0,.57-2c-.13-.53-.59-.71-1.16-.46a2.54,2.54,0,0,0-1,.87l-2,2.71c-.13-.08-.07-.27-.07-.42,0-1.9,0-3.8,0-5.7,0-1.05-.55-1.44-1.35-1a3.06,3.06,0,0,0-1.35,2.55v6.21c-.72-.14-1.39-.25-2-.39a1.2,1.2,0,0,0-1,.24,3.06,3.06,0,0,0-1.16,1.8c-.15.76,0,1.28.57,1.39,1.09.23,2.2.45,3.32.64.24,0,.33.17.33.51,0,1.6,0,3.18,0,4.77a.52.52,0,0,1-.3.57c-1.13.62-2.25,1.28-3.37,1.94-.23.13-.32.15-.27-.18.84-5.68-1.68-9.64-6.21-9-.31,0-.24-.16-.16-.44a15.71,15.71,0,0,1,4.66-7.36,1.13,1.13,0,0,0,.45-.78,15.18,15.18,0,0,1,6.54-9.7c3.09-1.79,5.82-.89,6.54,2.16,0,.24.13.35.4.28,2.82-.74,4.52.39,5.09,3.37,0,.07,0,.18.1.15Z" fill="#002d61"/><path d="M698.75,553.81c4.49-2.59,9-5.17,13.47-7.78.35-.21.46-.17.43.25s0,.94,0,1.41a2.92,2.92,0,0,1-1.5,2.6l-8.88,5.13-15.85,9.15c-1.11.64-1.62.35-1.61-.93,0-.59-.22-1.23.09-1.74s.94-.62,1.43-.91Z" fill="#002d61"/><path d="M699.17,533.86c-.66.38-1.31.75-2,1.15-.23.13-.39.16-.55.06-2.24-1.3-4.48-2.6-6.73-3.88-.24-.14-.19-.29,0-.64,2.18-3.26,4.6-5.19,7.19-5.53s4.1,1,4.55,4a10.52,10.52,0,0,1-.11,3.09.77.77,0,0,1-.44.66C700.49,533.08,699.83,533.48,699.17,533.86Z" fill="#002d61"/><path d="M684.62,532.59l-8.89,5.14a21,21,0,0,1,2-6.74c.47-1,1.36-1.63,1.91-1.33C681.29,530.6,682.93,531.6,684.62,532.59Z" fill="#002d61"/><path d="M675.73,540.88l7-4-.28.51c-1.46,2.53-2.93,5.06-4.38,7.6-.25.43-.34.48-.54.26A7.66,7.66,0,0,1,675.73,540.88Z" fill="#002d61"/><path d="M692.89,537.49l-2.29,1.32-2.88,1.66c-.14.09-.33.28-.33-.05,0-2.06,0-4.11,0-6.13Z" fill="#002d61"/><path d="M681.06,544.32,684.7,538c0,1.31,0,2.63,0,3.94a.39.39,0,0,1-.23.4C683.33,543,682.19,543.67,681.06,544.32Z" fill="#002d61"/><path d="M573.76,829.8,364.5,950.62c-6.61,3.82-12-.23-12-9V555.13c0-8.81,5.36-19,12-22.86L573.76,411.45c6.61-3.82,12,.23,12,9V806.94C585.73,815.75,580.37,826,573.76,829.8Z" fill="#fff"/><path d="M450.39,628.09,391,662.35c-5.18,3-9.37-.18-9.37-7.09V590.08c0-6.91,4.19-14.93,9.37-17.92l59.35-34.26c5.18-3,9.38.18,9.38,7.09v65.18C459.77,617.08,455.57,625.1,450.39,628.09Z" fill="#edf7fc"/><path d="M536.48,526.78l-58.93,34c-1.81,1.05-3.29-.07-3.29-2.49v-5.89a7.89,7.89,0,0,1,3.29-6.28l58.93-34c1.82-1.05,3.3.07,3.3,2.49v5.89A7.87,7.87,0,0,1,536.48,526.78Z" fill="#edf7fc"/><path d="M555.8,543.3l-78.25,45.17c-1.81,1-3.29-.06-3.29-2.49V580.1a7.91,7.91,0,0,1,3.29-6.29l78.25-45.17c1.81-1,3.29.06,3.29,2.49V537A7.91,7.91,0,0,1,555.8,543.3Z" fill="#edf7fc"/><path d="M450.39,735.07,391,769.33c-5.18,3-9.37-.18-9.37-7.09V697.06c0-6.91,4.19-14.93,9.37-17.92l59.35-34.26c5.18-3,9.38.18,9.38,7.08v65.19C459.77,724.06,455.57,732.08,450.39,735.07Z" fill="#edf7fc"/><path d="M536.48,633.76l-58.93,34c-1.81,1.05-3.29-.06-3.29-2.48v-5.89a7.91,7.91,0,0,1,3.29-6.29l58.93-34c1.82-1.05,3.3.07,3.3,2.49v5.88A7.88,7.88,0,0,1,536.48,633.76Z" fill="#edf7fc"/><path d="M555.8,650.28l-78.25,45.17c-1.81,1-3.29-.07-3.29-2.49v-5.88a7.9,7.9,0,0,1,3.29-6.29l78.25-45.17c1.81-1,3.29.06,3.29,2.49V644A7.91,7.91,0,0,1,555.8,650.28Z" fill="#edf7fc"/><path d="M450.39,842.05,391,876.31c-5.18,3-9.37-.18-9.37-7.09V804c0-6.9,4.19-14.92,9.37-17.91l59.35-34.27c5.18-3,9.38.19,9.38,7.09v65.19C459.77,831,455.57,839.06,450.39,842.05Z" fill="#edf7fc"/><path d="M536.48,740.74l-58.93,34c-1.81,1-3.29-.06-3.29-2.48v-5.89a7.91,7.91,0,0,1,3.29-6.29l58.93-34c1.82-1.05,3.3.07,3.3,2.49v5.88A7.88,7.88,0,0,1,536.48,740.74Z" fill="#edf7fc"/><path d="M555.8,757.26l-78.25,45.17c-1.81,1.05-3.29-.07-3.29-2.49v-5.88a7.9,7.9,0,0,1,3.29-6.29L555.8,742.6c1.81-1.05,3.29.06,3.29,2.48V751A7.91,7.91,0,0,1,555.8,757.26Z" fill="#edf7fc"/><path d="M443.29,573.67a8.75,8.75,0,0,0-2.79-5.8c-2-1.68-4.67-1.82-7.8-.66a6.15,6.15,0,0,1-1.31.48l-2.85,1.64c-.15.3-.37.37-.56.51a31.4,31.4,0,0,0-5.41,5A48,48,0,0,0,412.86,592a26.37,26.37,0,0,0-1.36,10.83,6,6,0,0,1-.25,2.54c-.43,1.39-1,2.78-1.45,4.18-.12.32-.13.5.08.61q3.8,2.16,7.57,4.37c.19.12.33.05.56-.22.84-1,1.68-2,2.52-2.95a6.22,6.22,0,0,1,2.09-1.75,25.86,25.86,0,0,0,9.06-6.73,47.58,47.58,0,0,0,9.79-16.36C443.13,581.86,443.82,577.52,443.29,573.67ZM425.54,584.6a.81.81,0,0,1-1.33-.76,2.91,2.91,0,0,1,1.36-2.32c.73-.41,1.3-.06,1.3.8A3,3,0,0,1,425.54,584.6Zm0-4.36c-.73.42-1.33.07-1.33-.76a3,3,0,0,1,1.37-2.32c.73-.4,1.3,0,1.3.8A2.9,2.9,0,0,1,425.53,580.24Zm3.77,2.19c-.72.41-1.31.07-1.31-.78a2.9,2.9,0,0,1,1.31-2.29c.74-.44,1.36-.08,1.35.78A3,3,0,0,1,429.3,582.43Z" fill="#002d61"/><path d="M398,625.88c.23-.66.28-1.28.5-2,1.34-4,4.9-7.35,7.57-7,.35,0,.52-.05.76-.59.36-.81.79-1.61,1.17-2.42.15-.31.24-.41.44-.29q3.36,2,6.75,3.9c.19.11.17.23,0,.52-.54.79-1.06,1.6-1.61,2.38-.24.35-.26.5-.1.7.94,1.17,1.09,2.91.52,5.15a11.67,11.67,0,0,1-5.34,7.09c-2.3,1.16-4.27.38-4.77-1.91a5.71,5.71,0,0,1-.16-1.53c0-.22,0-.26-.24-.16-3,1.53-4.56,1-5.38-1.9,0,0-.06,0-.08-.06Z" fill="#002d61"/><path d="M407,706.62a28.25,28.25,0,0,0-7.52,10.57,17.55,17.55,0,0,0-.88,2.46c1.46-.84,2.85-1.66,4.24-2.44a1.06,1.06,0,0,0,.59-.86,35.34,35.34,0,0,1,1.22-4.15,51.78,51.78,0,0,1,2.42-5.53s.1-.11.06-.15S407,706.59,407,706.62Zm27.72-7.82c-.08-.24-.14-.41-.2-.56-3.37-7.74-13.44-5.93-21.24,3.84a35.2,35.2,0,0,0-6.31,12.07c-.24.81-.24.81.37.46.8-.47,1.61-1,2.42-1.38a1.65,1.65,0,0,0,.82-1.06c2.29-6.39,7.38-12.16,12.19-13.87,3.7-1.31,6.42-.52,8.22,2.25.11.17.19.31.47.14C432.48,700.05,433.54,699.45,434.67,698.8Zm5.71-12.56c.13-.49.27-.94.35-1.37a22.09,22.09,0,0,0,.18-5.28c0-1-.79-1.2-1.71-.68-1.83,1.05-3.66,2.09-5.49,3.18a13.43,13.43,0,0,0-5,5.83c-.59,1.22-.59,1.25.27,1.23.4,0,.72.2,1.24-.16a17.45,17.45,0,0,1,5.65-2.6A10.5,10.5,0,0,1,440.38,686.24ZM414.15,710.6c1-.45,12.58-7.2,13-7.55C424.19,700,417.58,703.44,414.15,710.6Zm20.15-19.72a10.83,10.83,0,0,1,3.79,5.7c0,.14.09.2.25.1l4.49-2.59A6.44,6.44,0,0,0,434.3,690.88Z" fill="#002d61"/><path d="M392.59,728.43a4.56,4.56,0,0,1,2.35-2.9q25.94-14.92,51.86-29.92a3,3,0,0,1,.82-.4c.78-.18,1.3.36,1.21,1.3a3.6,3.6,0,0,1-1.56,2.62c-3,1.82-5.11,4.73-6.53,8.57a19.18,19.18,0,0,1-6.59,9.07s-.07.11-.11.17L407.1,732.49c-.15-.15-.39,0-.59.11a6.29,6.29,0,0,1-2.44.34,4.73,4.73,0,0,1-3.69-2.44c-1.19-1.84-3.06-2.25-5.56-1-1.05.52-1.82.65-2.23-.28Z" fill="#002d61"/><path d="M434.67,698.8c-1.13.65-2.19,1.25-3.26,1.89-.28.17-.36,0-.47-.14-1.8-2.77-4.52-3.56-8.22-2.25-4.81,1.71-9.9,7.48-12.19,13.87a1.65,1.65,0,0,1-.82,1.06c-.81.41-1.62.91-2.42,1.38-.61.35-.61.35-.37-.46a35.2,35.2,0,0,1,6.31-12.07c7.8-9.77,17.87-11.58,21.24-3.84C434.53,698.39,434.59,698.56,434.67,698.8Z" fill="#002d61"/><path d="M440.38,686.24a10.5,10.5,0,0,0-4.51.15,17.45,17.45,0,0,0-5.65,2.6c-.52.36-.84.15-1.24.16-.86,0-.86,0-.27-1.23a13.43,13.43,0,0,1,5-5.83c1.83-1.09,3.66-2.13,5.49-3.18.92-.52,1.68-.31,1.71.68a22.09,22.09,0,0,1-.18,5.28C440.65,685.3,440.51,685.75,440.38,686.24Z" fill="#002d61"/><path d="M414.15,710.6c3.43-7.16,10-10.61,13-7.55C426.73,703.4,415.1,710.15,414.15,710.6Z" fill="#002d61"/><path d="M434.3,690.88a6.44,6.44,0,0,1,8.53,3.21l-4.49,2.59c-.16.1-.21,0-.25-.1A10.83,10.83,0,0,0,434.3,690.88Z" fill="#002d61"/><path d="M407,706.67a51.78,51.78,0,0,0-2.42,5.53,35.34,35.34,0,0,0-1.22,4.15,1.06,1.06,0,0,1-.59.86c-1.39.78-2.78,1.6-4.24,2.44a17.55,17.55,0,0,1,.88-2.46A28.25,28.25,0,0,1,407,706.62Z" fill="#002d61"/><path d="M407,706.62s.12-.11.13-.1,0,.1-.06.15Z" fill="#002d61"/><path d="M441.43,798.9v2.24c-.14.15-.08.26-.09.38a37.22,37.22,0,0,1-1.61,8.1,49.41,49.41,0,0,1-8.65,16.2,3.92,3.92,0,0,1-1.1,1l-18.46,10.65a1.71,1.71,0,0,1-1.06.28,10.05,10.05,0,0,1-7.43-4.14c-1.95-2.62-2.92-6.13-2.95-10.47a2.28,2.28,0,0,1,.05-.44,2.77,2.77,0,0,1,1.49-1.9l38.24-22.08C440.6,798.28,441.15,798.22,441.43,798.9Z" fill="#002d61"/><path d="M420.75,807,405,816c-.3.18-.43.16-.54-.12-1.17-3,.61-8.23,3.87-11.25a1.43,1.43,0,0,0,.49-.85c.92-4,4.06-7.88,7.12-8.8a1,1,0,0,0,.57-.5c2.29-3.73,6.12-5.93,8.41-4.85.19.09.35,0,.58-.17,3.07-2.61,6.19-2.35,7.11.6.08.26.21.34.49.27,3.28-.75,5.05,2.42,3.85,6.85a.94.94,0,0,1-.54.69ZM411,807a2.64,2.64,0,0,0,1.2-2.08c0-.75-.54-1.08-1.2-.71a2.74,2.74,0,0,0-1.22,2.13C409.78,807.09,410.32,807.38,411,807Zm14.7-8.49a2.62,2.62,0,0,0,1.2-2.07c0-.76-.54-1.08-1.2-.71a2.7,2.7,0,0,0-1.22,2.12C424.48,798.6,425,798.89,425.69,798.5Zm4.82,0a2.67,2.67,0,0,0,1.23-2.06c0-.79-.54-1.12-1.21-.73a2.68,2.68,0,0,0-1.21,2.08C429.31,798.58,429.85,798.89,430.51,798.52Z" fill="#002d61"/><path d="M431.49,828.76a7.92,7.92,0,0,1-3.14,4.56c-1,.61-2,1.16-3,1.73-3.92,2.27-7.85,4.52-11.78,6.82-1.9,1.11-3.1.49-3.56-.59a.35.35,0,0,1,0-.13Z" fill="#002d61"/><ellipse cx="975.36" cy="826.01" rx="91.93" ry="48.9" fill="#edf7fc" style="mix-blend-mode:multiply"/><path d="M1082.85,721.58l-91.37,52.76a18,18,0,0,1-18,0l-91.39-52.76a18,18,0,0,1,0-31.21l91.37-52.76a18,18,0,0,1,18,0l91.39,52.77A18,18,0,0,1,1082.85,721.58Z" fill="url(#linear-gradient-12)"/><path d="M1082.85,710l-91.37,52.75a18,18,0,0,1-18,0L882.07,710a18,18,0,0,1,0-31.21L973.44,626a18.06,18.06,0,0,1,18,0l91.39,52.77A18,18,0,0,1,1082.85,710Z" fill="#fff"/><ellipse cx="986.19" cy="689.51" rx="66.23" ry="35.23" fill="#e6e7e8" opacity="0.7" style="mix-blend-mode:multiply"/><path d="M986,673.21c19.76,0,35.82,8,37.71,18.28a10.33,10.33,0,0,0,.38-2c0-11.19-17.05-20.26-38.09-20.26S948,678.32,948,689.51a11.16,11.16,0,0,0,.38,2C950.23,681.25,966.28,673.21,986,673.21Z" fill="#3d93c9"/><path d="M986,709.77c19.76,0,35.82-8,37.71-18.28-1.89-10.24-18-18.28-37.71-18.28s-35.81,8-37.71,18.28C950.23,701.74,966.28,709.77,986,709.77Z" fill="#57a8e5"/><path d="M941.77,697.59c-8.15-8.66-.76-13.8,12-25.16,8.15-7.27,11.83-13.7,23.31-13.13s41.34,3.51,47.09,13.91c7.53,13.62,16.1,27.34-24.1,36.56C965.21,717.76,950.25,706.61,941.77,697.59Z" fill="#ffcf8a"/><path d="M946,679.37s-2.45,12.19,11.82,21.18,26.63,7.24,26.63,7.24-18-3.86-27.21-11.07-8.88-19.49-8.88-19.49Z" fill="#ffba55"/><path d="M961,692.58a36.26,36.26,0,0,0,23.42,5.89c14.15-1.17,27.84,6.3,27.84,6.3s-5.53-6.89-13.69-9.22S972.36,696,961,692.58Z" fill="#ffba55"/><path d="M955.79,670.53S957.21,687,961,692.58s7.86,10,9,12.19c2.38-3.1-6.65-13.29-9-20.58s-2.4-16.37-2.4-16.37Z" fill="#ffba55"/><path d="M958.52,680.37s28.26,10.16,37.65,0,6.19-17.88,6.19-17.88,4.95.14,3.64,6.76-4.46,13.19-10.63,15.64c-10.2,4-23.88,2.33-30.26,1C958.15,684.43,958.52,680.37,958.52,680.37Z" fill="#ffba55"/><path d="M1012.26,665.23s6.56,6.58,2,13-14.42,19.52-14.42,19.52l2.48.93s14.27-13.6,15.44-20.74S1018.86,665.77,1012.26,665.23Z" fill="#ffba55"/><path d="M997.79,698.67s-16,9-18.15,11.1a12.35,12.35,0,0,1-4.08,2.74h4.52s8.73-5.6,13.54-8.8,6.26-3.65,6.26-3.65Z" fill="#ffba55"/><path d="M963.76,663.22a34.74,34.74,0,0,0,3.29,12.29c3,6.07,19.87,6.79,23.51,3.73s5.61-17.54,5.61-17.54l-2.7-.8s.44.67,0,4.33-2.9,12.5-10.3,13.08c-9.3.72-12.8-1.4-15.62-7.81-2.72-6.16-1.51-8.8-1.51-8.8Z" fill="#ffba55"/><path d="M966,668.85s6.66-4.52,11.43-3.62,10.31,2.59,10.31,2.59-6.11-5.28-12.16-5.33-10.45,4.38-10.45,4.38Z" fill="#ffba55"/><path d="M974,678.8s1.72-7.57,6.58-11a13.4,13.4,0,0,1,9.37-2.59s0,1.31-1.91,3.16-5.65.21-8,2.68S974.37,678.39,974,678.8Z" fill="#ffba55"/><path d="M953.12,704.71s2.48,5.19,6.79,6.47a19.12,19.12,0,0,0,8.19.51s-2.53-5.72-6.66-7.44S953.12,704.71,953.12,704.71Z" fill="#0aa5a5"/><path d="M969.29,695.61a18.53,18.53,0,0,0-4.48,8c-1,4.43,3.29,8.1,3.29,8.1s3.36-1.26,3.54-7.62A13.76,13.76,0,0,0,969.29,695.61Z" fill="#0aa5a5"/><path d="M1019.4,681s0,6,2.62,10.48,6.24,5,6.24,5a11.35,11.35,0,0,0-.87-9.11C1024.77,682.66,1019.4,681,1019.4,681Z" fill="#0aa5a5"/><path d="M1030,686.1c4.53-3.57,8.31-3,8.31-3a18.72,18.72,0,0,1-3.53,10c-1.75,2.42-6.7,3.42-6.7,3.42S1024.73,690.27,1030,686.1Z" fill="#0aa5a5"/><path d="M986.19,666.65a8.87,8.87,0,0,1-6.22-3.32c-2.37-3.17-2.66-11.29-2.66-11.29s6.69,2.07,8.59,6.92S986.19,666.65,986.19,666.65Z" fill="#0aa5a5"/><path d="M1001.19,653.46S993.1,656,989.91,659a14,14,0,0,0-3.72,7.62s5.25,2.5,10-1S1001.19,653.46,1001.19,653.46Z" fill="#0aa5a5"/><path d="M966.8,672.4c3.57,4.34-.15,13.3-8.31,20s-17.66,8.63-21.23,4.29.15-13.29,8.31-20S963.23,668.06,966.8,672.4Z" fill="#ff316c"/><rect x="931.67" y="681.12" width="38.25" height="3.88" transform="matrix(0.77, -0.64, 0.64, 0.77, -217.41, 759.75)" fill="#ff316c"/><path d="M964.33,669.41c3.57,4.34-.14,13.29-8.3,20s-17.66,8.64-21.23,4.3.15-13.3,8.3-20S960.76,665.07,964.33,669.41Z" fill="#ff7ba7"/><path d="M936,686.68c-.53,2.4.4,4.92,2.18,5.81s7.67-7,8.19-9.82S936.72,683.31,936,686.68Z" fill="#ff316c"/><path d="M947.39,682.66c-.64,1.26-4.14,8-4.08,9.55s4.52.07,8-2.26,8.43-6,5-7.14S949,679.6,947.39,682.66Z" fill="#ff316c"/><path d="M940,681.62c1.67-.23,4.76-1.37,6-1.47s2.56-1.52,1.58-3.82-2.34-3.17-5.79-.34C938.08,679,937.87,681.9,940,681.62Z" fill="#ff316c"/><path d="M948.7,678.5c.06-1.46-.21-4.74.06-5.75s1.94-2.81,4.66-3.33,4.64-.26,2.2,2.67-3.79,4.71-4.79,5.75S948.62,680.08,948.7,678.5Z" fill="#ff316c"/><path d="M951.61,680.32c-1.25-.06-.64-1.08.87-3,1.28-1.63,6.66-7,8.28-6.81s3.47,1.56,2.13,5-3,6.29-5.71,5.65A32.35,32.35,0,0,0,951.61,680.32Z" fill="#ff316c"/><path d="M943,684.42s-2.82,1.13-2.71,2.23S942.43,687.56,943,684.42Z" fill="#ff7ba7"/><path d="M948.5,684.05s-1.81,2.57-1.52,3.52,2.39.51,2.5-.92A3.86,3.86,0,0,0,948.5,684.05Z" fill="#ff7ba7"/><path d="M949.57,683.16c.75,1.38,3,2.45,3.19.79S949.57,683.16,949.57,683.16Z" fill="#ff7ba7"/><path d="M945.63,678.45s-3.36,1.23-2.8-.31S945.63,678.45,945.63,678.45Z" fill="#ff7ba7"/><path d="M950.15,676.66a2.89,2.89,0,0,1,.44-2.83C951.68,672.63,952.51,674.76,950.15,676.66Z" fill="#ff7ba7"/><path d="M953.25,678.53a6.34,6.34,0,0,0,2.86-.75c1.43-.78.51-2.39-.71-1.59A8.61,8.61,0,0,0,953.25,678.53Z" fill="#ff7ba7"/><polygon points="480.89 929.42 605.13 1001.36 605.13 1165.1 480.89 1093.07 480.89 929.42" fill="#fff"/><polygon points="611.3 1004.93 611.3 1168.68 605.13 1165.1 605.13 1001.36 611.3 1004.93" fill="#edf7fc"/><polygon points="615.29 1002.63 924.96 823.65 924.96 987.4 611.3 1168.68 611.3 1004.93 615.29 1002.63" fill="#f8fdff"/><polygon points="847.9 865.6 847.9 952.37 755.65 899.06 847.9 865.6" fill="#2d2d2d"/><polygon points="694.07 1037.45 694.07 952.37 772.99 907.51 845.87 951.19 787.75 987.22 699.71 1037.45 693.3 1040.28 694.07 1037.45" fill="#d4ecf8"/><path d="M759.5,947.61c0,9.5,14.47,17.19,32.32,17.19s32.32-7.69,32.32-17.19-14.47-17.19-32.32-17.19S759.5,938.12,759.5,947.61Z" fill="#fff"/><rect x="759.5" y="915.49" width="64.64" height="32.13" transform="translate(1583.64 1863.1) rotate(180)" fill="#fff"/><path d="M797.79,932.68c0-4.86,6.48-8.66,14.76-8.66s14.75,3.8,14.75,8.66-6.48,8.65-14.75,8.65S797.79,937.53,797.79,932.68Zm3.44,0c0,2.47,4.64,5.22,11.32,5.22s11.32-2.75,11.32-5.22-4.65-5.22-11.32-5.22S801.23,930.21,801.23,932.68Z" fill="#edf7fc"/><path d="M757.08,910.42c0-4.86,6.48-8.66,14.76-8.66s14.76,3.8,14.76,8.66-6.49,8.65-14.76,8.65S757.08,915.27,757.08,910.42Zm3.44,0c0,2.47,4.65,5.22,11.32,5.22s11.32-2.75,11.32-5.22-4.65-5.22-11.32-5.22S760.52,908,760.52,910.42Z" fill="#fff"/><path d="M759.5,921.53c0,9.49,14.47,17.19,32.32,17.19s32.32-7.7,32.32-17.19-14.47-17.2-32.32-17.2S759.5,912,759.5,921.53Z" fill="#fff"/><path d="M759.5,915.64c0,9.49,14.47,17.19,32.32,17.19s32.32-7.7,32.32-17.19-14.47-17.2-32.32-17.2S759.5,906.14,759.5,915.64Z" fill="#edf7fc"/><path d="M762.47,913.24c0,8.62,13.14,15.61,29.35,15.61s29.35-7,29.35-15.61S808,897.62,791.82,897.62,762.47,904.61,762.47,913.24Z" fill="#fff"/><path d="M786.62,905.86c0,1.64,2.5,3,5.58,3s5.59-1.33,5.59-3-2.5-3-5.59-3S786.62,904.22,786.62,905.86Z" fill="url(#linear-gradient-13)"/><path d="M786.62,900.28a5.59,5.59,0,1,0,5.58-5.59A5.58,5.58,0,0,0,786.62,900.28Z" fill="url(#linear-gradient-14)"/><path d="M693.05,985.21c0,9.5,14.47,17.2,32.32,17.2s32.33-7.7,32.33-17.2S743.22,968,725.37,968,693.05,975.72,693.05,985.21Z" fill="#fff"/><rect x="693.05" y="953.09" width="64.64" height="32.13" transform="translate(1450.75 1938.3) rotate(180)" fill="#fff"/><path d="M731.34,970.28c0-4.85,6.48-8.65,14.76-8.65s14.76,3.8,14.76,8.65-6.48,8.66-14.76,8.66S731.34,975.13,731.34,970.28Zm3.44,0c0,2.47,4.65,5.22,11.32,5.22s11.32-2.75,11.32-5.22-4.65-5.22-11.32-5.22S734.78,967.81,734.78,970.28Z" fill="#edf7fc"/><path d="M690.64,948c0-4.85,6.48-8.65,14.75-8.65s14.76,3.8,14.76,8.65-6.48,8.66-14.76,8.66S690.64,952.87,690.64,948Zm3.43,0c0,2.47,4.65,5.22,11.32,5.22s11.32-2.75,11.32-5.22-4.64-5.22-11.32-5.22S694.07,945.55,694.07,948Z" fill="#fff"/><path d="M693.05,959.13c0,9.49,14.47,17.19,32.32,17.19s32.33-7.7,32.33-17.19-14.48-17.19-32.33-17.19S693.05,949.63,693.05,959.13Z" fill="#fff"/><path d="M693.05,953.24c0,9.49,14.47,17.19,32.32,17.19s32.33-7.7,32.33-17.19-14.48-17.19-32.33-17.19S693.05,943.74,693.05,953.24Z" fill="#edf7fc"/><path d="M696,950.84c0,8.62,13.13,15.61,29.34,15.61s29.35-7,29.35-15.61-13.14-15.61-29.35-15.61S696,942.22,696,950.84Z" fill="#fff"/><path d="M720.17,943.47c0,1.64,2.5,3,5.59,3s5.58-1.33,5.58-3-2.5-3-5.58-3S720.17,941.82,720.17,943.47Z" fill="url(#linear-gradient-15)"/><path d="M720.17,937.88a5.59,5.59,0,1,0,5.59-5.58A5.59,5.59,0,0,0,720.17,937.88Z" fill="url(#linear-gradient-16)"/><polygon points="845.89 860.07 849.92 860.07 849.92 1030.73 845.89 1033.06 845.89 860.07" fill="#9e9e9e"/><path d="M775,994.34v79.73l-4,2.33V996.07C772.3,995.45,773.63,994.84,775,994.34Z" fill="url(#linear-gradient-17)"/><polygon points="692.35 948.76 696.38 948.76 696.38 1119.43 692.35 1121.76 692.35 948.76" fill="url(#linear-gradient-18)"/><polygon points="611.07 1005.67 924.96 823.6 924.96 816.16 611.07 998.23 611.07 1005.67" fill="#edf7fc"/><polygon points="611.07 998.23 480.89 923.03 480.89 930.47 611.07 1005.67 611.07 998.23" fill="#edf7fc"/><polygon points="924.96 816.16 794.83 740.87 480.89 923.03 611.07 998.23 924.96 816.16" fill="#fff"/><polygon points="693.3 1039.42 847.9 950.02 847.9 954.33 693.3 1043.64 693.3 1039.42" fill="url(#linear-gradient-19)"/><path d="M718.46,1038.12l29.48-17V1032l-3.85,2.23v-4.19a1.5,1.5,0,0,0-2.25-1.3l-15.17,8.75a7.07,7.07,0,0,0-3.53,6.12v2.71l-4.68,2.71Z" fill="#edf7fc"/><path d="M726.67,1037.51l15.17-8.75a1.5,1.5,0,0,1,2.25,1.3v4.19l-21,12.09v-2.71A7.07,7.07,0,0,1,726.67,1037.51Z" fill="url(#linear-gradient-20)"/><path d="M795.25,994.14l29.49-17V988l-3.85,2.22v-4.19a1.51,1.51,0,0,0-2.26-1.3l-15.16,8.76a7,7,0,0,0-3.53,6.11v2.72l-4.69,2.7Z" fill="#7f7f7f"/><path d="M803.47,993.53l15.16-8.76a1.51,1.51,0,0,1,2.26,1.3v4.19l-20.95,12.1v-2.72A7,7,0,0,1,803.47,993.53Z" fill="#565656"/><path d="M872.67,866.78l29.48-17v10.93l-3.85,2.22v-4.19a1.5,1.5,0,0,0-2.25-1.3l-15.17,8.76a7.06,7.06,0,0,0-3.53,6.11V875l-4.68,2.7Z" fill="#edf7fc"/><path d="M880.88,866.18l15.17-8.76a1.5,1.5,0,0,1,2.25,1.3v4.19L877.35,875v-2.72A7.06,7.06,0,0,1,880.88,866.18Z" fill="url(#linear-gradient-21)"/><path d="M637.59,1002.85l29.48-17v10.93L663.22,999v-4.18a1.51,1.51,0,0,0-2.25-1.31l-15.17,8.76a7.06,7.06,0,0,0-3.53,6.11v2.72l-4.68,2.7Z" fill="#edf7fc"/><path d="M645.8,1002.24,661,993.48a1.51,1.51,0,0,1,2.25,1.31V999l-21,12.1v-2.72A7.06,7.06,0,0,1,645.8,1002.24Z" fill="url(#linear-gradient-22)"/><path d="M676.07,825.4c0,3.48,5.31,6.3,11.85,6.3s11.84-2.82,11.84-6.3-5.3-6.3-11.84-6.3S676.07,821.92,676.07,825.4Z" fill="#ffba55"/><rect x="676.07" y="785.66" width="23.69" height="39.75" transform="translate(1375.84 1611.06) rotate(180)" fill="#ffba55"/><path d="M676.07,785.66c0,3.48,5.31,6.3,11.85,6.3s11.84-2.82,11.84-6.3-5.3-6.3-11.84-6.3S676.07,782.18,676.07,785.66Z" fill="#ffcf8a"/><path d="M681.23,785c0,2,3,3.56,6.69,3.56s6.69-1.59,6.69-3.56-3-3.56-6.69-3.56S681.23,783.08,681.23,785Z" fill="#ffba55"/><rect x="681.23" y="781.82" width="13.38" height="3.22" transform="translate(1375.84 1566.86) rotate(180)" fill="#ffba55"/><path d="M681.23,781.82c0,2,3,3.56,6.69,3.56s6.69-1.59,6.69-3.56-3-3.56-6.69-3.56S681.23,779.86,681.23,781.82Z" fill="#ffe5c5"/><path d="M684.57,781.82c0,1,1.5,1.78,3.35,1.78s3.34-.8,3.34-1.78-1.49-1.78-3.34-1.78S684.57,780.84,684.57,781.82Z" fill="#ffba55"/><polygon points="691.26 781.82 689.59 776.57 686.25 776.57 684.58 781.82 691.26 781.82" fill="#ffba55"/><path d="M686.25,776.57c0,.49.75.89,1.67.89s1.67-.4,1.67-.89-.75-.89-1.67-.89S686.25,776.08,686.25,776.57Z" fill="#ffe5c5"/><path d="M657.54,835.11c0,3.48,5.3,6.3,11.85,6.3s11.84-2.82,11.84-6.3-5.3-6.3-11.84-6.3S657.54,831.63,657.54,835.11Z" fill="#ff316c"/><rect x="657.54" y="795.36" width="23.69" height="39.74" transform="translate(1338.77 1630.47) rotate(180)" fill="#ff316c"/><path d="M657.54,795.36c0,3.48,5.3,6.3,11.85,6.3s11.84-2.82,11.84-6.3-5.3-6.3-11.84-6.3S657.54,791.88,657.54,795.36Z" fill="#ff7ba7"/><path d="M662.7,794.74c0,2,3,3.56,6.69,3.56s6.68-1.59,6.68-3.56-3-3.55-6.68-3.55S662.7,792.78,662.7,794.74Z" fill="#ff316c"/><rect x="662.7" y="791.52" width="13.38" height="3.22" transform="translate(1338.77 1586.27) rotate(180)" fill="#ff316c"/><path d="M662.7,791.52c0,2,3,3.56,6.69,3.56s6.68-1.59,6.68-3.56-3-3.55-6.68-3.55S662.7,789.56,662.7,791.52Z" fill="#ff7ba7"/><path d="M666,791.52c0,1,1.5,1.78,3.35,1.78s3.34-.79,3.34-1.78-1.5-1.77-3.34-1.77S666,790.54,666,791.52Z" fill="#ff316c"/><polygon points="672.73 791.52 671.06 786.27 667.71 786.27 666.04 791.52 672.73 791.52" fill="#ff316c"/><path d="M667.71,786.27c0,.49.75.89,1.68.89s1.67-.4,1.67-.89-.75-.89-1.67-.89S667.71,785.78,667.71,786.27Z" fill="#ff7ba7"/><path d="M639,845.5c0,3.48,5.3,6.3,11.84,6.3s11.85-2.82,11.85-6.3-5.31-6.3-11.85-6.3S639,842,639,845.5Z" fill="#ea642f"/><rect x="639.01" y="805.75" width="23.69" height="39.74" transform="translate(1301.7 1651.25) rotate(180)" fill="#ea642f"/><path d="M639,805.75c0,3.48,5.3,6.3,11.84,6.3s11.85-2.82,11.85-6.3-5.31-6.3-11.85-6.3S639,802.27,639,805.75Z" fill="#ff8a61"/><path d="M644.16,805.13c0,2,3,3.56,6.69,3.56s6.69-1.59,6.69-3.56-3-3.56-6.69-3.56S644.16,803.17,644.16,805.13Z" fill="#ea642f"/><rect x="644.16" y="801.91" width="13.38" height="3.22" transform="translate(1301.7 1607.05) rotate(180)" fill="#ea642f"/><path d="M644.16,801.91c0,2,3,3.56,6.69,3.56s6.69-1.59,6.69-3.56-3-3.56-6.69-3.56S644.16,800,644.16,801.91Z" fill="#ffaf97"/><path d="M647.51,801.91c0,1,1.49,1.78,3.34,1.78s3.35-.79,3.35-1.78-1.5-1.78-3.35-1.78S647.51,800.93,647.51,801.91Z" fill="#ea642f"/><polygon points="654.2 801.91 652.52 796.66 649.18 796.66 647.51 801.91 654.2 801.91" fill="#ea642f"/><path d="M649.18,796.66c0,.49.75.89,1.67.89s1.67-.4,1.67-.89-.75-.89-1.67-.89S649.18,796.17,649.18,796.66Z" fill="#ffaf97"/><path d="M674.63,865s0,.05,0,.07c0,16-15,28.93-33.62,28.93s-33.62-12.95-33.62-28.93V865Z" fill="#edf7fc"/><path d="M607.4,864.12c0-9.88,15.05-17.88,33.62-17.88s33.62,8,33.62,17.88c0,6.75-7,12.62-17.4,15.66-1.86-3.86-8.39-6.72-16.22-6.72s-14.36,2.86-16.22,6.72C614.43,876.74,607.4,870.87,607.4,864.12Z" fill="#daebf2"/><path d="M641,873.06c7.83,0,14.36,2.86,16.22,6.72a60.36,60.36,0,0,1-32.44,0C626.66,875.92,633.19,873.06,641,873.06Z" fill="url(#linear-gradient-23)"/><path d="M618,863.62c-2,2.53.24,7.63,5,11.39s10.24,4.75,12.24,2.22-.24-7.63-5-11.39S620,861.09,618,863.62Z" fill="#ff316c"/><rect x="616.31" y="868.44" width="21.97" height="2.23" transform="translate(581.13 1940.76) rotate(-141.73)" fill="#ff316c"/><path d="M619.36,861.87c-2,2.54.24,7.64,5,11.39s10.25,4.76,12.25,2.22-.24-7.63-5-11.39S621.36,859.34,619.36,861.87Z" fill="#ff7ba7"/><path d="M635.85,871.46a3,3,0,0,1-1.19,3.36c-1,.53-4.48-3.9-4.82-5.54S635.38,869.53,635.85,871.46Z" fill="#ff316c"/><path d="M629.24,869.29c.39.71,2.48,4.56,2.46,5.43s-2.59.09-4.61-1.2-4.91-3.36-3-4S628.31,867.55,629.24,869.29Z" fill="#ff316c"/><path d="M633.48,868.6c-1-.11-2.75-.73-3.45-.77s-1.49-.85-.95-2.18,1.3-1.85,3.31-.26S634.71,868.74,633.48,868.6Z" fill="#ff316c"/><path d="M628.45,866.91a30.56,30.56,0,0,0-.11-3.3,3.46,3.46,0,0,0-2.71-1.86c-1.57-.26-2.67-.09-1.23,1.56s2.23,2.66,2.82,3.24S628.51,867.81,628.45,866.91Z" fill="#ff316c"/><path d="M626.8,868c.71,0,.35-.63-.54-1.72-.75-.92-3.91-4-4.84-3.81s-2,.94-1.16,2.92,1.78,3.57,3.35,3.18A18.5,18.5,0,0,1,626.8,868Z" fill="#ff316c"/><path d="M631.79,870.24s1.63.62,1.58,1.25S632.15,872,631.79,870.24Z" fill="#ff7ba7"/><path d="M628.63,870.09s1.06,1.46.91,2-1.37.32-1.45-.5A2.23,2.23,0,0,1,628.63,870.09Z" fill="#ff7ba7"/><path d="M628,869.6c-.41.8-1.72,1.44-1.82.49S628,869.6,628,869.6Z" fill="#ff7ba7"/><path d="M630.21,866.84s1.94.67,1.6-.2S630.21,866.84,630.21,866.84Z" fill="#ff7ba7"/><path d="M627.59,865.87a1.67,1.67,0,0,0-.29-1.62C626.66,863.58,626.22,864.81,627.59,865.87Z" fill="#ff7ba7"/><path d="M625.83,867a3.53,3.53,0,0,1-1.65-.4c-.83-.43-.32-1.36.39-.92A4.9,4.9,0,0,1,625.83,867Z" fill="#ff7ba7"/><path d="M646.66,878.87c1.64,2.77,7.21,2.52,12.43-.57s8.12-7.85,6.47-10.62-7.2-2.53-12.42.56S645,876.09,646.66,878.87Z" fill="#ff316c"/><rect x="644.56" y="871.2" width="21.97" height="2.23" transform="translate(1664.01 1289.04) rotate(149.38)" fill="#ff316c"/><path d="M645.52,877c1.65,2.78,7.21,2.52,12.43-.57s8.12-7.84,6.48-10.62-7.21-2.52-12.43.57S643.88,874.17,645.52,877Z" fill="#ff7ba7"/><path d="M660.4,865a3,3,0,0,1,2.71,2.32c.14,1.14-5.25,2.78-6.9,2.5S658.44,864.76,660.4,865Z" fill="#ff316c"/><path d="M656,870.4c.8-.1,5.15-.67,6-.34s-.84,2.45-2.78,3.87-4.9,3.37-4.84,1.31S654,870.64,656,870.4Z" fill="#ff316c"/><path d="M656.88,866.2c-.44.85-1.67,2.3-2,2.94s-1.32,1.09-2.38.11-1.25-1.89,1-3.19S657.45,865.1,656.88,866.2Z" fill="#ff316c"/><path d="M653.5,870.29c-.81-.25-2.52-1-3.12-1.1a3.49,3.49,0,0,0-2.71,1.87c-.81,1.37-1,2.46,1,1.71s3.28-1.13,4-1.46S654.36,870.55,653.5,870.29Z" fill="#ff316c"/><path d="M653.91,872.22c.21-.69-.46-.56-1.8-.12-1.13.37-5.1,2.22-5.3,3.14s.17,2.17,2.31,2.13,4-.37,4.17-2A17.64,17.64,0,0,1,653.91,872.22Z" fill="#ff316c"/><path d="M657.81,868.37s1.16-1.3,1.73-1S659.62,868.68,657.81,868.37Z" fill="#ff7ba7"/><path d="M656.53,871.26s1.74-.47,2.2-.13-.2,1.4-1,1.18A2.26,2.26,0,0,1,656.53,871.26Z" fill="#ff7ba7"/><path d="M655.84,871.67c.6.67.73,2.12-.2,1.88S655.84,871.67,655.84,871.67Z" fill="#ff7ba7"/><path d="M654.07,868.62s1.32-1.57.38-1.57S654.07,868.62,654.07,868.62Z" fill="#ff7ba7"/><path d="M652.22,870.71a1.66,1.66,0,0,0-1.62-.31C649.74,870.75,650.73,871.61,652.22,870.71Z" fill="#ff7ba7"/><path d="M652.62,872.75a3.58,3.58,0,0,1-1,1.4c-.7.62-1.38-.2-.71-.7A5.09,5.09,0,0,1,652.62,872.75Z" fill="#ff7ba7"/><path d="M633.46,870c.41,3.2,5.63,5.17,11.64,4.39s10.56-4,10.15-7.2-5.63-5.17-11.65-4.39S633,866.81,633.46,870Z" fill="#ff316c"/><rect x="633.22" y="866.39" width="21.97" height="2.23" transform="translate(1394.38 1645.19) rotate(172.63)" fill="#ff316c"/><path d="M633.17,867.81c.42,3.2,5.63,5.16,11.65,4.38s10.56-4,10.14-7.2-5.63-5.17-11.64-4.39S632.76,864.61,633.17,867.81Z" fill="#ff7ba7"/><path d="M651.55,862.72a3,3,0,0,1,1.58,3.2c-.33,1.09-5.93.48-7.33-.43S649.85,861.71,651.55,862.72Z" fill="#ff316c"/><path d="M645.38,865.92c.78.23,5,1.42,5.61,2s-1.75,1.92-4.09,2.46-5.83,1.16-5-.71S643.49,865.37,645.38,865.92Z" fill="#ff316c"/><path d="M647.85,862.41c-.74.61-2.44,1.45-3,1.93s-1.65.48-2.23-.84-.4-2.23,2.14-2.56C647.52,860.59,648.81,861.63,647.85,862.41Z" fill="#ff316c"/><path d="M643.13,864.83a27.56,27.56,0,0,0-2.44-2.23,3.44,3.44,0,0,0-3.22.64c-1.29.94-1.94,1.84.25,2s3.46.26,4.29.25S643.82,865.42,643.13,864.83Z" fill="#ff316c"/><path d="M642.75,866.77c.46-.55-.21-.69-1.61-.82-1.18-.11-5.56,0-6.11.79s-.7,2.07,1.28,2.87,3.8,1.23,4.61-.17A18,18,0,0,1,642.75,866.77Z" fill="#ff316c"/><path d="M647.84,864.77s1.59-.73,2-.26S649.39,865.77,647.84,864.77Z" fill="#ff7ba7"/><path d="M645.53,866.93s1.79.25,2.07.74-.73,1.21-1.37.69A2.2,2.2,0,0,1,645.53,866.93Z" fill="#ff7ba7"/><path d="M644.73,867c.29.85-.16,2.23-.92,1.64S644.73,867,644.73,867Z" fill="#ff7ba7"/><path d="M644.31,863.52s1.84-.91,1-1.29S644.31,863.52,644.31,863.52Z" fill="#ff7ba7"/><path d="M641.78,864.72a1.63,1.63,0,0,0-1.35-.93C639.5,863.77,640.06,865,641.78,864.72Z" fill="#ff7ba7"/><path d="M641.35,866.75a3.63,3.63,0,0,1-1.44.9c-.89.29-1.2-.73-.38-.92A5,5,0,0,1,641.35,866.75Z" fill="#ff7ba7"/><path d="M761,871.34c0,11.12-17,20.13-37.85,20.13s-37.84-9-37.84-20.13,16.94-20.13,37.84-20.13S761,860.22,761,871.34Z" fill="#edf7fc"/><path d="M723,889.37c-19.33,0-35.06-8.07-35.06-18s15.73-18,35.06-18,35.06,8.07,35.06,18S742.31,889.37,723,889.37Zm0-35c-18.8,0-34.1,7.64-34.1,17s15.3,17,34.1,17,34.1-7.64,34.1-17S741.78,854.36,723,854.36Z" fill="#fff"/><path d="M723.06,862c11.29,0,20.46,4.59,21.55,10.44a6.09,6.09,0,0,0,.21-1.13c0-6.39-9.74-11.57-21.76-11.57S701.3,865,701.3,871.34a6.09,6.09,0,0,0,.21,1.13C702.6,866.62,711.77,862,723.06,862Z" fill="#3d93c9"/><path d="M723.06,882.92c11.29,0,20.46-4.59,21.55-10.45-1.09-5.85-10.26-10.44-21.55-10.44s-20.46,4.59-21.55,10.44C702.6,878.33,711.77,882.92,723.06,882.92Z" fill="#57a8e5"/><path d="M697.76,876c-4.65-5-.43-7.89,6.84-14.38,4.66-4.15,6.76-7.82,13.32-7.5s23.62,2,26.9,7.95c4.31,7.78,9.2,15.62-13.77,20.89C711.16,887.48,702.61,881.11,697.76,876Z" fill="#ffcf8a"/><path d="M700.16,865.55s-1.4,7,6.76,12.1,15.21,4.13,15.21,4.13-10.25-2.2-15.54-6.32-5.08-11.14-5.08-11.14Z" fill="#ffba55"/><path d="M708.75,873.09a20.72,20.72,0,0,0,13.38,3.37c8.09-.67,15.91,3.6,15.91,3.6a17.55,17.55,0,0,0-7.82-5.27C725.56,873.46,715.24,875.05,708.75,873.09Z" fill="#ffba55"/><path d="M705.78,860.49s.81,9.4,3,12.6,4.49,5.7,5.13,7c1.36-1.77-3.8-7.6-5.13-11.76a37,37,0,0,1-1.37-9.35Z" fill="#ffba55"/><path d="M707.34,866.12s16.14,5.8,21.51,0,3.53-10.22,3.53-10.22,2.83.08,2.08,3.87-2.54,7.53-6.07,8.93c-5.83,2.31-13.64,1.33-17.29.57C707.12,868.44,707.34,866.12,707.34,866.12Z" fill="#ffba55"/><path d="M738,857.47s3.75,3.76,1.17,7.42S731,876,731,876l1.41.54s8.16-7.78,8.82-11.85S741.81,857.78,738,857.47Z" fill="#ffba55"/><path d="M729.77,876.58s-9.12,5.14-10.37,6.34a7.17,7.17,0,0,1-2.33,1.56h2.58s5-3.19,7.74-5a18.39,18.39,0,0,1,3.58-2.08Z" fill="#ffba55"/><path d="M710.33,856.32a19.71,19.71,0,0,0,1.88,7c1.71,3.47,11.35,3.88,13.43,2.13s3.21-10,3.21-10l-1.54-.45s.25.38,0,2.47-1.66,7.14-5.89,7.47c-5.31.41-7.31-.8-8.92-4.46s-.87-5-.87-5Z" fill="#ffba55"/><path d="M711.6,859.54s3.8-2.58,6.53-2.07S724,859,724,859s-3.49-3-6.95-3.05a9.2,9.2,0,0,0-6,2.51Z" fill="#ffba55"/><path d="M716.16,865.22s1-4.32,3.76-6.27a7.64,7.64,0,0,1,5.35-1.48,3,3,0,0,1-1.09,1.8c-1.08,1.06-3.23.12-4.59,1.53S716.39,865,716.16,865.22Z" fill="#ffba55"/><path d="M704.25,880s1.42,3,3.88,3.69a10.83,10.83,0,0,0,4.68.29s-1.45-3.26-3.8-4.25A6.19,6.19,0,0,0,704.25,880Z" fill="#0aa5a5"/><path d="M713.49,874.83a10.49,10.49,0,0,0-2.56,4.56c-.55,2.53,1.88,4.62,1.88,4.62s1.92-.71,2-4.35A7.87,7.87,0,0,0,713.49,874.83Z" fill="#0aa5a5"/><path d="M742.12,866.48a13.5,13.5,0,0,0,1.5,6,5.51,5.51,0,0,0,3.57,2.87,6.49,6.49,0,0,0-.51-5.2A8.64,8.64,0,0,0,742.12,866.48Z" fill="#0aa5a5"/><path d="M748.19,869.39a6.79,6.79,0,0,1,4.75-1.72,10.68,10.68,0,0,1-2,5.72c-1,1.38-3.83,2-3.83,2S745.16,871.77,748.19,869.39Z" fill="#0aa5a5"/><path d="M723.14,858.28a5.06,5.06,0,0,1-3.55-1.9c-1.35-1.81-1.52-6.45-1.52-6.45s3.83,1.19,4.91,4S723.14,858.28,723.14,858.28Z" fill="#0aa5a5"/><path d="M731.72,850.75s-4.63,1.43-6.45,3.17a8,8,0,0,0-2.13,4.36,5.9,5.9,0,0,0,5.71-.56C731.55,855.73,731.72,850.75,731.72,850.75Z" fill="#0aa5a5"/><ellipse cx="600.21" cy="921.05" rx="42.22" ry="22.46" fill="#edf7fc"/><path d="M600,941.17c-21.57,0-39.12-9-39.12-20.06s17.55-20.06,39.12-20.06,39.11,9,39.11,20.06S621.59,941.17,600,941.17Zm0-39.06c-21,0-38,8.52-38,19s17.07,19,38,19,38-8.52,38-19S621,902.11,600,902.11Z" fill="#fff"/><path d="M600.12,910.66c12.6,0,22.83,5.12,24,11.65a6.68,6.68,0,0,0,.24-1.26c0-7.13-10.87-12.91-24.28-12.91s-24.28,5.78-24.28,12.91a6.68,6.68,0,0,0,.24,1.26C577.29,915.78,587.52,910.66,600.12,910.66Z" fill="#3d93c9"/><path d="M600.12,934c12.6,0,22.83-5.12,24-11.66-1.21-6.53-11.44-11.65-24-11.65s-22.83,5.12-24,11.65C577.29,928.85,587.52,934,600.12,934Z" fill="#57a8e5"/><path d="M571.89,926.2c-5.19-5.52-.48-8.79,7.63-16,5.2-4.64,7.54-8.74,14.86-8.38s26.35,2.25,30,8.87c4.8,8.69,10.26,17.43-15.37,23.31C586.84,939.06,577.3,932,571.89,926.2Z" fill="#ffcf8a"/><path d="M574.57,914.59s-1.56,7.77,7.54,13.5,17,4.61,17,4.61-11.44-2.46-17.34-7.05-5.66-12.43-5.66-12.43Z" fill="#ffba55"/><path d="M584.15,923a23.15,23.15,0,0,0,14.93,3.75c9-.74,17.75,4,17.75,4a19.43,19.43,0,0,0-8.72-5.87C602.91,923.42,591.39,925.19,584.15,923Z" fill="#ffba55"/><path d="M580.83,909s.91,10.49,3.32,14.06,5,6.35,5.73,7.77c1.51-2-4.24-8.47-5.73-13.12a41.6,41.6,0,0,1-1.53-10.44Z" fill="#ffba55"/><path d="M582.57,915.23s18,6.47,24,0,3.94-11.4,3.94-11.4,3.16.09,2.32,4.31-2.84,8.4-6.78,10c-6.5,2.58-15.22,1.49-19.28.64C582.34,917.81,582.57,915.23,582.57,915.23Z" fill="#ffba55"/><path d="M616.83,905.58s4.18,4.19,1.3,8.28-9.19,12.44-9.19,12.44l1.58.59s9.1-8.67,9.84-13.22S621,905.92,616.83,905.58Z" fill="#ffba55"/><path d="M607.61,926.89S597.43,932.63,596,934a8,8,0,0,1-2.6,1.74h2.87s5.58-3.56,8.64-5.61a20.38,20.38,0,0,1,4-2.32Z" fill="#ffba55"/><path d="M585.91,904.29a22.26,22.26,0,0,0,2.1,7.84c1.91,3.87,12.67,4.33,15,2.38s3.58-11.19,3.58-11.19l-1.72-.5s.28.42,0,2.76-1.85,8-6.57,8.33c-5.93.46-8.16-.89-10-5s-1-5.62-1-5.62Z" fill="#ffba55"/><path d="M587.33,907.88s4.25-2.88,7.29-2.3,6.57,1.64,6.57,1.64-3.9-3.36-7.75-3.39a10.2,10.2,0,0,0-6.66,2.79Z" fill="#ffba55"/><path d="M592.41,914.23s1.11-4.83,4.2-7a8.54,8.54,0,0,1,6-1.64,3.38,3.38,0,0,1-1.22,2c-1.21,1.18-3.6.13-5.13,1.71S592.68,914,592.41,914.23Z" fill="#ffba55"/><path d="M579.13,930.74s1.58,3.31,4.33,4.12a12,12,0,0,0,5.22.33s-1.61-3.64-4.24-4.74A6.9,6.9,0,0,0,579.13,930.74Z" fill="#0aa5a5"/><path d="M589.44,924.94a11.82,11.82,0,0,0-2.86,5.09c-.61,2.82,2.1,5.16,2.1,5.16s2.14-.8,2.25-4.86A8.73,8.73,0,0,0,589.44,924.94Z" fill="#0aa5a5"/><path d="M621.38,915.63a15.08,15.08,0,0,0,1.67,6.68,6.18,6.18,0,0,0,4,3.21,7.21,7.21,0,0,0-.55-5.8A9.7,9.7,0,0,0,621.38,915.63Z" fill="#0aa5a5"/><path d="M628.15,918.88c2.89-2.27,5.3-1.92,5.3-1.92a11.93,11.93,0,0,1-2.25,6.38c-1.12,1.54-4.27,2.18-4.27,2.18S624.78,921.53,628.15,918.88Z" fill="#0aa5a5"/><path d="M600.21,906.48a5.66,5.66,0,0,1-4-2.12c-1.5-2-1.69-7.2-1.69-7.2s4.27,1.33,5.48,4.42S600.21,906.48,600.21,906.48Z" fill="#0aa5a5"/><path d="M609.78,898.07s-5.16,1.6-7.19,3.55a8.91,8.91,0,0,0-2.38,4.86,6.59,6.59,0,0,0,6.37-.63C609.59,903.63,609.78,898.07,609.78,898.07Z" fill="#0aa5a5"/><path d="M858.3,776.42c3.44.3,14-3.37,21.86,11.89,10.82,20.87,9.86,42.92,3.32,56.58S860,856.21,860,856.21Z" fill="#d4ecf8"/><path d="M843.14,1129c-7.59-3.8-14.79-8.44-12.49-12.76,1-2,3.46-2.82,5.79-3.21,7,2.3,10.49,3.87,10.49,3.87s-.73-40.62-3.72-57.45c-1-5.55,25.54-5.75,25.54-5.75.94,3.88,1.78,38,0,58.8a61,61,0,0,0,.29,14.9c-1.81.78-5.54,2.4-8.31,3.67C856.93,1132.78,850.73,1132.78,843.14,1129Z" fill="#ffc5b3"/><path d="M869.35,1138.44c-2.54,6-8.38,5.47-20.21,1.22-10.48-3.78-19.14-8-26.59-13.56s-7.54-6.25-8.52-10c-1.38-5.22,6.24-8.15,18.93-4.21,1.25.39,2.4.76,3.48,1.12-2.33.39-4.75,1.25-5.79,3.21-2.3,4.32,4.9,9,12.49,12.76s13.79,3.79,17.59,2.07c2.77-1.27,6.5-2.89,8.31-3.67C869.81,1132.46,870.87,1134.81,869.35,1138.44Z" fill="#55c3fe"/><path d="M806.24,1150.4c-7.59-3.79-14.8-8.43-12.49-12.76,1-2,3.46-2.82,5.79-3.21,7,2.3,10.49,3.87,10.49,3.87s-3.75-65.64-6.75-82.47c-1-5.55,27.44,4.7,27.44,4.7.95,3.87,2.91,52.59,1.12,73.38a61.26,61.26,0,0,0,.3,14.89c-1.81.79-5.54,2.41-8.31,3.67C820,1154.2,813.82,1154.2,806.24,1150.4Z" fill="#ffc5b3"/><path d="M832.45,1159.85c-2.54,6-8.39,5.48-20.21,1.22-10.49-3.77-19.14-8-26.59-13.56s-7.54-6.25-8.52-10c-1.38-5.23,6.24-8.16,18.92-4.22,1.26.39,2.41.76,3.49,1.12-2.33.39-4.75,1.26-5.79,3.21-2.31,4.33,4.9,9,12.49,12.76s13.79,3.8,17.59,2.07c2.77-1.26,6.5-2.88,8.31-3.67C832.91,1153.87,834,1156.22,832.45,1159.85Z" fill="#55c3fe"/><path d="M880.7,933.22s.2,44.62,0,61.15-3.69,57-2.52,72.91,2.52,59.79,2.52,59.79a26.43,26.43,0,0,1-27.6,10.62c-16-3.28-14.77-24.1-14.77-24.1s5.28-5.86,5.55-24-4.66-94.57-4.42-118.13.06-31.22,1.9-30.6S880.7,933.22,880.7,933.22Z" fill="url(#linear-gradient-24)"/><path d="M848.84,964.41s-11.13,55-11.89,68a335.78,335.78,0,0,0,1.16,47.65c1.58,16.59,2.86,66.69,1.35,68.46s-9.08,8.77-19.87,8.18-26.09-8.82-21.65-22.77-.64-68.38-.79-82.09-2.23-85-1.67-95.78S848.84,964.41,848.84,964.41Z" fill="url(#linear-gradient-25)"/><path d="M829.48,709.51c-2.86,2-13.44,4.46-16.54,28-2.09,15.81,3.17,22.87,7.66,27,1.87,1.71,9.2,2,9.2,2l-.32,17.62s10.33,4.09,20.25,0l9.91-4.08s-3.87-6.68-3.23-18.23c.81-14.33,5.88-34.74,2.29-42.33C852.21,705.8,837.26,704.11,829.48,709.51Z" fill="#ffc5b3"/><path d="M829.22,982.91c-18.56-1.63-28.6-8.59-38.13-19.78.77-25.7,3.73-44.47,5-67.68,1.46-26,5-34.67.87-61.92-2-13.64,13.15-32.69,16.88-40.83s15.62-13.11,15.62-13.11L860,776.24s15.87,23.08,18.84,39.35c5.06,27.65,3.28,71.46,5.47,99.76,1.34,17.3.57,35.17.73,43.28C873.48,972.84,856.81,985.34,829.22,982.91Z" fill="#fff"/><path d="M862.42,778.15s-1.52,5-11.6,8.17-19.17,2.6-29.09-2.3c-.06-6.52,8.62-11.14,8.62-11.14l27.28-4.8Z" fill="#fff"/><path d="M847.52,702c14.12,3,30.66,13.08,21,39.34-3.14,8.56-9.14,8.1-11.88,18.09-6.77,1.65-22.7.66-26.31-7.1-5-10.76-17-17.19-18.17-22.91C808.71,713.11,822.3,696.68,847.52,702Z" fill="#ff3d79"/><path d="M816.74,741.13s5.66-6.33,8.85,0c4.57,9.08-6.12,13.17-6.12,13.17Z" fill="#ffc5b3"/><path d="M775.13,849.75l2.25.54s19.18-53,41.75-60.44c6.14-2,12.76,13.19,10.9,28.27-1.61,13-13.78,32.22-20.85,43.44-4.11,6.53-13.6,20.8-27.5,17.33-3.19-.8-6.71-1.66-10.34-2.54C767.82,868,769.83,857.19,775.13,849.75Z" fill="#d4ecf8"/><path d="M813.1,714.86c-1.29,8.34,10.73,17.13,26.83,19.62s30.22-2.27,31.51-10.61-10.73-17.14-26.84-19.62S814.39,706.51,813.1,714.86Z" fill="url(#linear-gradient-26)"/><path d="M873.72,713.13l-2.3,12.6L859,723.42C867,721.9,872.72,718.19,873.72,713.13Z" fill="url(#linear-gradient-27)"/><path d="M823.23,716.75l-10.13-1.89,1.76-9.3C815.15,709.54,818.26,713.5,823.23,716.75Z" fill="url(#linear-gradient-28)"/><path d="M873.8,712.8c0,.11-.06.22-.08.33l.09-.51C873.8,712.68,873.81,712.74,873.8,712.8Z" fill="#fff"/><path d="M821.83,668.78l58.33,9-6.35,34.83-.09.51c-1,5.06-6.71,8.77-14.71,10.29a50.83,50.83,0,0,1-17,.09,48.27,48.27,0,0,1-18.77-6.76c-5-3.25-8.08-7.21-8.37-11.19Z" fill="url(#linear-gradient-29)"/><path d="M821.83,668.78c-1.29,8.34,10.72,17.13,26.83,19.62s30.21-2.27,31.5-10.61-10.72-17.14-26.83-19.62S823.12,660.43,821.83,668.78Z" fill="url(#linear-gradient-30)"/><path d="M832.44,670.42c-.82,5.31,6.82,10.89,17.07,12.48s19.22-1.44,20-6.75-6.82-10.9-17.07-12.48S833.26,665.11,832.44,670.42Z" fill="#f1f2f2" opacity="0.7" style="mix-blend-mode:multiply"/><path d="M869.29,690.82c.58,3.87-2,20-2.93,23.71a19.59,19.59,0,0,1-1.73,4.9s-.65-11.62.39-15.84A85.24,85.24,0,0,1,869.29,690.82Z" fill="url(#linear-gradient-31)"/><path d="M859,692.38s.39,9.67,0,13.83-3.71,14.54-3.71,14.54-.58-11.72,0-16.36S859,692.38,859,692.38Z" fill="url(#linear-gradient-32)"/><path d="M847.51,692.38S847,703.07,846.6,708s-4.52,12.76-4.52,12.76.2-11.08,1-16.91S847.51,692.38,847.51,692.38Z" fill="url(#linear-gradient-33)"/><path d="M837.22,690.82s.78,8.27,0,12.78-4.66,13.15-4.66,13.15.78-11.94,1.17-15.24S837.22,690.82,837.22,690.82Z" fill="url(#linear-gradient-34)"/><path d="M828,686s-.48,7.58-1.25,12.83a73.41,73.41,0,0,1-3.5,12.36s.19-10.81,1-16.44A16.62,16.62,0,0,1,828,686Z" fill="url(#linear-gradient-35)"/><path d="M858.3,769.49s-15.29,3-24.43,5.41-11.57,6.22-11.57,6.22.11-4.26,5.68-7.61,28.38-7.61,28.38-7.61Z" fill="url(#linear-gradient-36)"/><path d="M715.41,824.94a3.39,3.39,0,0,1,4.33-4.33c4.73,1.67,11.55,3.94,14.34,4.22,1.09.11,4.51,0,.92-3.94-2.62-2.87-3.7-6.75-2-7.29,2.73-.84,4.2,2.93,9.73,6,7,4,7.19,5.44,9.43,11.89C754,836.63,768,846.65,775,851.74c-1.51,3,.18,7-.09,10.43a18.87,18.87,0,0,0,1.13,11.6v0a7.38,7.38,0,0,1-7.51,2.25c-13.13-2.83-25.49-33-40-39.38C720.16,833,716.73,828.49,715.41,824.94Z" fill="#ffc5b3"/><path d="M778.25,848c-1.08,4-2.12,4.58-.56,13.64s3.8,11.59,8.37,14.18a18.16,18.16,0,0,0,7.26,1.92s-3.91,5.79-14.4,6.5-18.28-4.08-15.55-18.1C765.08,857.37,768.47,848.91,778.25,848Z" fill="#d4ecf8"/><g style="isolation:isolate"><path d="M1098.3,417.77l-.17,61.57c0,7-2.48,11.86-6.43,14.16l-7,4c4-2.3,6.42-7.19,6.43-14.15l.18-61.56c0-14-9.81-31.09-22-38.12L904.17,288.33c-6.13-3.55-11.69-3.88-15.7-1.54l6.94-4c4-2.33,9.57-2,15.71,1.55l165.18,95.36C1088.48,386.7,1098.35,403.76,1098.3,417.77Z" fill="url(#linear-gradient-37)"/><path d="M904.17,288.33c-12.18-7-22.1-1.4-22.14,12.62l-.18,61.56c0,14,9.82,31.08,22,38.12l22.54,13,3.29,35.68L972.07,440l97,56c12.19,7,22.11,1.38,22.15-12.63l.17-61.56c0-14-9.81-31.08-22-38.11Z" fill="#ff3d79"/></g><path d="M1008.81,405c0,8,5.64,17.81,12.6,21.84s12.61.76,12.61-7.28-5.64-17.82-12.61-21.84S1008.81,396.94,1008.81,405Z" fill="#fafafa"/><path d="M974,384.88c0,8,5.64,17.82,12.61,21.84s12.6.76,12.6-7.28-5.64-17.82-12.6-21.84S974,376.84,974,384.88Z" fill="#fafafa"/><path d="M939.19,364.79c0,8,5.65,17.81,12.61,21.83s12.61.77,12.61-7.28-5.65-17.81-12.61-21.83S939.19,356.75,939.19,364.79Z" fill="#fafafa"/><g style="isolation:isolate"><path d="M184.32,489l.17,61.57c0,7,2.48,11.85,6.44,14.16l6.95,4c-4-2.31-6.43-7.19-6.44-14.16L191.26,493c0-14,9.82-31.08,22-38.11l165.19-95.37c6.13-3.55,11.7-3.88,15.7-1.54l-6.93-4c-4-2.33-9.58-2-15.72,1.54L206.32,450.85C194.14,457.88,184.27,474.94,184.32,489Z" fill="url(#linear-gradient-38)"/><path d="M378.45,359.52c12.19-7,22.11-1.4,22.15,12.62l.17,61.56c0,14-9.81,31.08-22,38.12l-22.55,13-3.28,35.68-42.39-9.31-97,56c-12.19,7-22.11,1.39-22.15-12.62L191.26,493c0-14,9.82-31.08,22-38.12Z" fill="#ff3d79"/></g><path d="M273.82,476.16c0,8-5.65,17.82-12.61,21.84s-12.61.76-12.61-7.28,5.65-17.81,12.61-21.83S273.82,468.12,273.82,476.16Z" fill="#fafafa"/><path d="M308.63,456.07c0,8-5.65,17.82-12.61,21.84s-12.61.76-12.61-7.28,5.64-17.82,12.61-21.84S308.63,448,308.63,456.07Z" fill="#fafafa"/><path d="M343.43,436c0,8-5.64,17.82-12.61,21.84s-12.6.76-12.6-7.28,5.64-17.81,12.6-21.83S343.43,427.93,343.43,436Z" fill="#fafafa"/><ellipse cx="1087.88" cy="1022.66" rx="107.81" ry="57.34" fill="#edf7fc" style="mix-blend-mode:multiply"/><path d="M1202.44,967.53,1101.16,1026a20,20,0,0,1-20,0l-101.3-58.49a20,20,0,0,1,0-34.59l101.28-58.48a20,20,0,0,1,20,0l101.3,58.49A20,20,0,0,1,1202.44,967.53Z" fill="url(#linear-gradient-39)"/><path d="M1202.44,954.71l-101.28,58.48a20,20,0,0,1-20,0L979.89,954.7a20,20,0,0,1,0-34.59l101.28-58.48a20,20,0,0,1,20,0l101.3,58.49A20,20,0,0,1,1202.44,954.71Z" fill="#fff"/><ellipse cx="1091.16" cy="926.89" rx="69.53" ry="36.99" fill="#e6e7e8" opacity="0.7" style="mix-blend-mode:multiply"/><path d="M1091,909.78c20.75,0,37.6,8.44,39.59,19.19a11.24,11.24,0,0,0,.4-2.08c0-11.74-17.9-21.27-40-21.27s-40,9.53-40,21.27a11.22,11.22,0,0,0,.39,2.08C1053.41,918.22,1070.27,909.78,1091,909.78Z" fill="#3d93c9"/><path d="M1091,948.16c20.75,0,37.6-8.43,39.59-19.19-2-10.75-18.84-19.19-39.59-19.19s-37.6,8.44-39.59,19.19C1053.41,939.73,1070.27,948.16,1091,948.16Z" fill="#57a8e5"/><path d="M1048.07,916.74s-2,10.93,0,14.77,17.76,19.19,44.31,18.6,30.09-11.11,34.52-14.56,4.87-16.36,4.87-16.36Z" fill="#ea642f"/><path d="M1103.48,900.8c-13.27-2.68-28-10.56-44.26-.6-12.42,7.62-21.8,26.58,13.34,38.69s48.36-5,56.11-13.29C1137.53,916.15,1126.9,905.52,1103.48,900.8Z" fill="#ff7d43"/><path d="M1120.26,919.19c0,3-4.65,5.53-10.39,5.53s-10.38-2.48-10.38-5.53,4.65-5.52,10.38-5.52S1120.26,916.14,1120.26,919.19Z" fill="#fff"/><path d="M1115.73,919.19c0,1.72-2.62,3.12-5.86,3.12s-5.85-1.4-5.85-3.12,2.62-3.11,5.85-3.11S1115.73,917.47,1115.73,919.19Z" fill="#ea642f"/><path d="M1073.31,897.68a101.41,101.41,0,0,1,11.62,11.25c4.61,5.54,11.42,17.53,11.42,17.53s-8-8.65-14-16.41C1075.47,901.2,1073.31,897.68,1073.31,897.68Z" fill="#ea642f"/><path d="M1064.85,903.3a101.41,101.41,0,0,1,11.62,11.25c4.61,5.54,11.41,17.53,11.41,17.53s-8-8.92-14-16.68C1067,906.55,1064.85,903.3,1064.85,903.3Z" fill="#ea642f"/><path d="M1055.36,908.24A92.27,92.27,0,0,1,1066,918.5c4.2,5,10.41,16,10.41,16a160.77,160.77,0,0,1-11.52-13.12C1058.57,913.28,1055.36,908.24,1055.36,908.24Z" fill="#ea642f"/><path d="M1092.17,907.5a101.84,101.84,0,0,0-15.16,5.66c-6.44,3.23-17.47,11.5-17.47,11.5s10.9-5,19.52-9.67C1088.91,909.62,1092.17,907.5,1092.17,907.5Z" fill="#ea642f"/><path d="M1098.89,915.82a92.24,92.24,0,0,0-13.82,5.16c-5.87,2.95-15.93,10.49-15.93,10.49a162.63,162.63,0,0,0,15.8-7.42C1093.92,919.16,1098.89,915.82,1098.89,915.82Z" fill="#ea642f"/><path d="M1082.56,900.78a92.24,92.24,0,0,0-13.82,5.16c-5.87,2.95-15.93,10.49-15.93,10.49a162.63,162.63,0,0,0,15.8-7.42C1077.59,904.12,1082.56,900.78,1082.56,900.78Z" fill="#ea642f"/><path d="M1072.66,910.1c3.75,4.55-.15,14-8.72,21s-18.54,9.07-22.29,4.51.16-14,8.72-21S1068.91,905.54,1072.66,910.1Z" fill="#ff316c"/><rect x="1035.79" y="919.25" width="40.15" height="4.07" transform="translate(-344.84 880.78) rotate(-39.45)" fill="#ff316c"/><path d="M1070.07,907c3.75,4.55-.15,13.95-8.71,21s-18.54,9.06-22.29,4.51.15-14,8.72-21S1066.33,902.4,1070.07,907Z" fill="#ff7ba7"/><path d="M1040.31,925.09c-.56,2.51.42,5.16,2.29,6.1s8.05-7.29,8.6-10.31S1041.09,921.55,1040.31,925.09Z" fill="#ff316c"/><path d="M1052.29,920.87c-.67,1.32-4.35,8.44-4.29,10s4.75.07,8.38-2.37,8.85-6.32,5.26-7.49S1053.93,917.66,1052.29,920.87Z" fill="#ff316c"/><path d="M1044.52,919.77c1.75-.23,5-1.43,6.29-1.54s2.68-1.59,1.65-4-2.46-3.33-6.07-.35C1042.52,917.06,1042.29,920.08,1044.52,919.77Z" fill="#ff316c"/><path d="M1053.66,916.5c.07-1.54-.22-5,.06-6s2-3,4.9-3.49,4.87-.27,2.31,2.8-4,4.94-5,6S1053.58,918.16,1053.66,916.5Z" fill="#ff316c"/><path d="M1056.72,918.42c-1.32-.07-.67-1.14.92-3.17,1.34-1.71,7-7.38,8.69-7.15s3.63,1.64,2.23,5.29-3.11,6.6-6,5.94A33.61,33.61,0,0,0,1056.72,918.42Z" fill="#ff316c"/><path d="M1047.68,922.72s-3,1.19-2.84,2.34S1047.08,926,1047.68,922.72Z" fill="#ff7ba7"/><path d="M1053.45,922.32s-1.9,2.7-1.6,3.7,2.52.53,2.63-1A4.07,4.07,0,0,0,1053.45,922.32Z" fill="#ff7ba7"/><path d="M1054.58,921.39c.78,1.45,3.19,2.58,3.34.83S1054.58,921.39,1054.58,921.39Z" fill="#ff7ba7"/><path d="M1050.44,916.45s-3.52,1.29-2.94-.33S1050.44,916.45,1050.44,916.45Z" fill="#ff7ba7"/><path d="M1055.19,914.57a3,3,0,0,1,.46-3C1056.79,910.34,1057.66,912.57,1055.19,914.57Z" fill="#ff7ba7"/><path d="M1058.44,916.53a6.56,6.56,0,0,0,3-.78c1.51-.83.53-2.51-.74-1.67A9,9,0,0,0,1058.44,916.53Z" fill="#ff7ba7"/><path d="M1139.28,931.36c-4.55,3.75-14-.15-21-8.71s-9.07-18.54-4.51-22.29,14,.15,21,8.72S1143.84,927.62,1139.28,931.36Z" fill="#ff316c"/><rect x="1108.02" y="912.53" width="40.15" height="4.07" transform="translate(1117.52 -537.64) rotate(50.55)" fill="#ff316c"/><path d="M1142.42,928.78c-4.55,3.75-14-.16-21-8.72s-9.07-18.54-4.51-22.29,14,.16,21,8.72S1147,925,1142.42,928.78Z" fill="#ff7ba7"/><path d="M1124.29,899c-2.52-.56-5.16.42-6.1,2.29s7.29,8.05,10.31,8.6S1127.83,899.79,1124.29,899Z" fill="#ff316c"/><path d="M1128.51,911c-1.32-.67-8.44-4.35-10-4.28s-.08,4.74,2.37,8.38,6.31,8.85,7.49,5.26S1131.72,912.64,1128.51,911Z" fill="#ff316c"/><path d="M1129.6,903.22c.24,1.75,1.44,5,1.54,6.29s1.6,2.69,4,1.66,3.32-2.46.35-6.08C1132.32,901.22,1129.3,901,1129.6,903.22Z" fill="#ff316c"/><path d="M1132.87,912.36c1.54.07,5-.22,6,.07s3,2,3.5,4.89.27,4.88-2.8,2.31-4.94-4-6-5S1131.22,912.28,1132.87,912.36Z" fill="#ff316c"/><path d="M1131,915.42c.07-1.31,1.14-.67,3.17.92,1.71,1.34,7.38,7,7.15,8.69s-1.65,3.64-5.29,2.23-6.61-3.1-5.94-6A33.61,33.61,0,0,0,1131,915.42Z" fill="#ff316c"/><path d="M1126.66,906.39s-1.19-3-2.34-2.85S1123.36,905.78,1126.66,906.39Z" fill="#ff7ba7"/><path d="M1127.06,912.15s-2.7-1.89-3.7-1.59-.54,2.51,1,2.63A4.11,4.11,0,0,0,1127.06,912.15Z" fill="#ff7ba7"/><path d="M1128,913.28c-1.45.78-2.58,3.19-.84,3.35S1128,913.28,1128,913.28Z" fill="#ff7ba7"/><path d="M1132.93,909.14s-1.3-3.52.32-2.94S1132.93,909.14,1132.93,909.14Z" fill="#ff7ba7"/><path d="M1134.81,913.89a3,3,0,0,1,3,.46C1139,915.49,1136.8,916.36,1134.81,913.89Z" fill="#ff7ba7"/><path d="M1132.85,917.14a6.62,6.62,0,0,0,.78,3c.82,1.5,2.51.52,1.67-.75A9,9,0,0,0,1132.85,917.14Z" fill="#ff7ba7"/><g style="isolation:isolate"><path d="M1092.65,554.15l-9.8,5.7a11.64,11.64,0,0,1,1.37-.68c4.59-1.88,11.25-.84,17.94,3l9.8-5.7c-6.68-3.86-13.35-4.9-17.93-3A11,11,0,0,0,1092.65,554.15Z" fill="url(#linear-gradient)"/><g clip-path="url(#clip-path)"><g style="isolation:isolate"><path d="M1102.16,562.19l9.8-5.7c-6.68-3.86-13.35-4.9-17.93-3a11,11,0,0,0-1.38.68l-9.8,5.7a11.64,11.64,0,0,1,1.37-.68C1088.81,557.29,1095.47,558.33,1102.16,562.19Z" fill="url(#linear-gradient)"/></g></g><path d="M1122.59,587.57l9.81-5.69c-4.57-12.29-12.52-20.82-20.44-25.39l-9.8,5.7C1110.07,566.76,1118,575.28,1122.59,587.57Z" fill="url(#linear-gradient-2)"/><g clip-path="url(#clip-path-2)"><g style="isolation:isolate"><path d="M1122.59,587.57l9.81-5.69c-4.57-12.29-12.52-20.82-20.44-25.39l-9.8,5.7C1110.07,566.76,1118,575.28,1122.59,587.57Z" fill="url(#linear-gradient-2)"/></g></g><path d="M1150.46,663.21l9.8-5.7c24.61-14.3,22.26-41.3,10.54-59.71a55.38,55.38,0,0,0-17.89-17.66c-6-3.47-12.05-4.69-16.63-2l-9.8,5.7c4.58-2.67,10.62-1.45,16.63,2,6.69,3.86,13.33,10.5,17.89,17.67C1172.72,621.91,1175.07,648.9,1150.46,663.21Z" fill="url(#linear-gradient-3)"/><g clip-path="url(#clip-path-3)"><g style="isolation:isolate"><path d="M1150.46,663.21l9.8-5.7c24.61-14.3,22.26-41.3,10.54-59.71a55.38,55.38,0,0,0-17.89-17.66c-6-3.47-12.05-4.69-16.63-2l-9.8,5.7c4.58-2.67,10.62-1.45,16.63,2,6.69,3.86,13.33,10.5,17.89,17.67C1172.72,621.91,1175.07,648.9,1150.46,663.21Z" fill="url(#linear-gradient-3)"/></g></g><path d="M1102.16,562.19c-6.69-3.86-13.35-4.9-17.94-3-15.14,6.22-14.94,44.44,38.14,112.69,53.29-6.83,53.7-44.7,38.64-68.36-4.56-7.17-11.2-13.81-17.89-17.67-7.92-4.57-15.89-5.24-20.52,1.74C1118,575.28,1110.07,566.76,1102.16,562.19Z" fill="#ff3d79"/></g><g style="isolation:isolate"><path d="M304,739.5l9.81,5.7a11,11,0,0,0-1.38-.68c-4.59-1.89-11.25-.84-17.93,3l-9.8-5.7c6.68-3.86,13.34-4.9,17.93-3A11.64,11.64,0,0,1,304,739.5Z" fill="url(#linear-gradient-4)"/><g clip-path="url(#clip-path-4)"><g style="isolation:isolate"><path d="M294.48,747.54l-9.8-5.7c6.68-3.86,13.34-4.9,17.93-3a11.64,11.64,0,0,1,1.37.68l9.81,5.7a11,11,0,0,0-1.38-.68C307.82,742.63,301.16,743.68,294.48,747.54Z" fill="url(#linear-gradient-4)"/></g></g><path d="M274,772.92l-9.8-5.69c4.57-12.3,12.52-20.82,20.44-25.39l9.8,5.7C286.56,752.11,278.61,760.63,274,772.92Z" fill="url(#linear-gradient-5)"/><g clip-path="url(#clip-path-5)"><g style="isolation:isolate"><path d="M274,772.92l-9.8-5.69c4.57-12.3,12.52-20.82,20.44-25.39l9.8,5.7C286.56,752.11,278.61,760.63,274,772.92Z" fill="url(#linear-gradient-5)"/></g></g><path d="M246.18,848.55l-9.8-5.69c-24.62-14.31-22.27-41.3-10.55-59.71,4.56-7.17,11.21-13.81,17.89-17.67,6-3.47,12.05-4.69,16.64-2l9.8,5.69c-4.59-2.66-10.63-1.44-16.64,2-6.68,3.86-13.33,10.5-17.89,17.67C223.92,807.25,221.57,834.25,246.18,848.55Z" fill="url(#linear-gradient-6)"/><g clip-path="url(#clip-path-6)"><g style="isolation:isolate"><path d="M246.18,848.55l-9.8-5.69c-24.62-14.31-22.27-41.3-10.55-59.71,4.56-7.17,11.21-13.81,17.89-17.67,6-3.47,12.05-4.69,16.64-2l9.8,5.69c-4.59-2.66-10.63-1.44-16.64,2-6.68,3.86-13.33,10.5-17.89,17.67C223.92,807.25,221.57,834.25,246.18,848.55Z" fill="url(#linear-gradient-6)"/></g></g><path d="M294.48,747.54c6.68-3.86,13.34-4.91,17.93-3,15.15,6.22,14.95,44.44-38.13,112.69-53.29-6.84-53.71-44.7-38.65-68.36,4.56-7.17,11.21-13.81,17.89-17.67,7.92-4.57,15.89-5.24,20.52,1.74C278.61,760.63,286.56,752.11,294.48,747.54Z" fill="#ff3d79"/></g><ellipse cx="838.31" cy="1138.33" rx="107.81" ry="57.34" fill="#edf7fc" style="mix-blend-mode:multiply"/></g></g></svg>